Raleway-Regular-OTF.ufo
<glyph name="dollar" format="1">
  <advance width="619"/>
  <unicode hex="0024"/>
  <outline>
    <contour>
      <point x="544" y="633" type="line"/>
      <point x="488" y="682"/>
      <point x="418" y="712"/>
      <point x="331" y="715" type="curve"/>
      <point x="331" y="815" type="line"/>
      <point x="294" y="815" type="line"/>
      <point x="294" y="714" type="line"/>
      <point x="158" y="707"/>
      <point x="64" y="636"/>
      <point x="64" y="511" type="curve" smooth="yes"/>
      <point x="64" y="396"/>
      <point x="143" y="360"/>
      <point x="291" y="326" type="curve" smooth="yes"/>
      <point x="297" y="324" type="line"/>
      <point x="297" y="57" type="line"/>
      <point x="201" y="64"/>
      <point x="119" y="104"/>
      <point x="73" y="154" type="curve"/>
      <point x="38" y="97" type="line"/>
      <point x="110" y="35"/>
      <point x="196" y="0"/>
      <point x="294" y="-5" type="curve"/>
      <point x="294" y="-103" type="line"/>
      <point x="331" y="-103" type="line"/>
      <point x="331" y="-6" type="line"/>
      <point x="476" y="-4"/>
      <point x="579" y="57"/>
      <point x="579" y="186" type="curve" smooth="yes"/>
      <point x="579" y="313"/>
      <point x="484" y="352"/>
      <point x="333" y="385" type="curve"/>
      <point x="330" y="385"/>
      <point x="328" y="386"/>
      <point x="326" y="386" type="curve"/>
      <point x="326" y="653" type="line"/>
      <point x="406" y="650"/>
      <point x="471" y="620"/>
      <point x="510" y="577" type="curve"/>
    </contour>
    <contour>
      <point x="505" y="179" type="curve" smooth="yes"/>
      <point x="505" y="97"/>
      <point x="438" y="56"/>
      <point x="326" y="56" type="curve"/>
      <point x="326" y="318" type="line"/>
      <point x="444" y="289"/>
      <point x="505" y="258"/>
    </contour>
    <contour>
      <point x="136" y="521" type="curve" smooth="yes"/>
      <point x="136" y="597"/>
      <point x="185" y="647"/>
      <point x="297" y="652" type="curve"/>
      <point x="297" y="393" type="line"/>
      <point x="185" y="419"/>
      <point x="136" y="445"/>
    </contour>
  </outline>
</glyph>
<glyph name="one" format="1">
  <advance width="428"/>
  <unicode hex="0031"/>
  <outline>
    <contour>
      <point x="279" y="62" type="line"/>
      <point x="279" y="571" type="line"/>
      <point x="209" y="571" type="line"/>
      <point x="203" y="559"/>
      <point x="108" y="476"/>
      <point x="46" y="476" type="curve"/>
      <point x="46" y="410" type="line"/>
      <point x="98" y="410"/>
      <point x="187" y="459"/>
      <point x="209" y="490" type="curve"/>
      <point x="209" y="62" type="line"/>
      <point x="67" y="62" type="line"/>
      <point x="67" y="0" type="line"/>
      <point x="406" y="0" type="line"/>
      <point x="406" y="62" type="line"/>
    </contour>
  </outline>
</glyph>
<glyph name="six" format="1">
  <advance width="603"/>
  <unicode hex="0036"/>
  <outline>
    <contour>
      <point x="559" y="234" type="curve" smooth="yes"/>
      <point x="559" y="368"/>
      <point x="451" y="474"/>
      <point x="315" y="474" type="curve" smooth="yes"/>
      <point x="225" y="474"/>
      <point x="147" y="423"/>
      <point x="118" y="345" type="curve"/>
      <point x="119" y="541"/>
      <point x="196" y="655"/>
      <point x="314" y="655" type="curve" smooth="yes"/>
      <point x="389" y="655"/>
      <point x="454" y="611"/>
      <point x="482" y="543" type="curve"/>
      <point x="526" y="583" type="line"/>
      <point x="487" y="665"/>
      <point x="408" y="715"/>
      <point x="314" y="715" type="curve" smooth="yes"/>
      <point x="158" y="715"/>
      <point x="52" y="576"/>
      <point x="52" y="287" type="curve" smooth="yes"/>
      <point x="52" y="102"/>
      <point x="158" y="-10"/>
      <point x="307" y="-10" type="curve" smooth="yes"/>
      <point x="449" y="-10"/>
      <point x="559" y="99"/>
    </contour>
    <contour>
      <point x="309" y="50" type="curve" smooth="yes"/>
      <point x="208" y="50"/>
      <point x="123" y="134"/>
      <point x="123" y="234" type="curve" smooth="yes"/>
      <point x="123" y="335"/>
      <point x="207" y="418"/>
      <point x="308" y="418" type="curve" smooth="yes"/>
      <point x="409" y="418"/>
      <point x="494" y="335"/>
      <point x="494" y="234" type="curve" smooth="yes"/>
      <point x="494" y="133"/>
      <point x="410" y="50"/>
    </contour>
  </outline>
</glyph>
<glyph name="eight" format="1">
  <advance width="593"/>
  <unicode hex="0038"/>
  <outline>
    <contour>
      <point x="543" y="197" type="curve" smooth="yes"/>
      <point x="543" y="287"/>
      <point x="478" y="353"/>
      <point x="400" y="380" type="curve"/>
      <point x="464" y="406"/>
      <point x="519" y="460"/>
      <point x="519" y="530" type="curve" smooth="yes"/>
      <point x="519" y="646"/>
      <point x="403" y="710"/>
      <point x="297" y="710" type="curve" smooth="yes"/>
      <point x="191" y="710"/>
      <point x="75" y="646"/>
      <point x="75" y="529" type="curve" smooth="yes"/>
      <point x="75" y="459"/>
      <point x="129" y="406"/>
      <point x="192" y="380" type="curve"/>
      <point x="123" y="356"/>
      <point x="50" y="292"/>
      <point x="50" y="201" type="curve" smooth="yes"/>
      <point x="50" y="86"/>
      <point x="152" y="-8"/>
      <point x="294" y="-8" type="curve" smooth="yes"/>
      <point x="428" y="-8"/>
      <point x="543" y="73"/>
    </contour>
    <contour>
      <point x="474" y="202" type="curve" smooth="yes"/>
      <point x="474" y="112"/>
      <point x="384" y="53"/>
      <point x="298" y="53" type="curve" smooth="yes"/>
      <point x="214" y="53"/>
      <point x="120" y="108"/>
      <point x="120" y="201" type="curve" smooth="yes"/>
      <point x="120" y="292"/>
      <point x="208" y="351"/>
      <point x="295" y="351" type="curve" smooth="yes"/>
      <point x="379" y="351"/>
      <point x="474" y="297"/>
    </contour>
    <contour>
      <point x="143" y="526" type="curve" smooth="yes"/>
      <point x="143" y="602"/>
      <point x="217" y="648"/>
      <point x="295" y="648" type="curve" smooth="yes"/>
      <point x="375" y="648"/>
      <point x="450" y="604"/>
      <point x="450" y="528" type="curve" smooth="yes"/>
      <point x="450" y="450"/>
      <point x="367" y="405"/>
      <point x="296" y="405" type="curve" smooth="yes"/>
      <point x="226" y="405"/>
      <point x="143" y="448"/>
    </contour>
  </outline>
</glyph>
<glyph name="asciicircum" format="1">
  <advance width="539"/>
  <unicode hex="005E"/>
  <outline>
    <contour>
      <point x="101" y="303" type="line"/>
      <point x="270" y="646" type="line"/>
      <point x="436" y="303" type="line"/>
      <point x="496" y="303" type="line"/>
      <point x="299" y="710" type="line"/>
      <point x="241" y="710" type="line"/>
      <point x="43" y="303" type="line"/>
    </contour>
  </outline>
</glyph>
<glyph name="b" format="1">
  <advance width="617"/>
  <unicode hex="0062"/>
  <outline>
    <contour>
      <point x="330" y="-10" type="curve" smooth="yes"/>
      <point x="470" y="-10"/>
      <point x="577" y="113"/>
      <point x="577" y="259" type="curve" smooth="yes"/>
      <point x="577" y="395"/>
      <point x="487" y="530"/>
      <point x="341" y="530" type="curve" smooth="yes"/>
      <point x="255" y="530"/>
      <point x="189" y="482"/>
      <point x="143" y="412" type="curve"/>
      <point x="143" y="730" type="line"/>
      <point x="75" y="730" type="line"/>
      <point x="75" y="0" type="line"/>
      <point x="136" y="0" type="line"/>
      <point x="136" y="101" type="line"/>
      <point x="175" y="36"/>
      <point x="248" y="-10"/>
    </contour>
    <contour>
      <point x="314" y="50" type="curve" smooth="yes"/>
      <point x="246" y="50"/>
      <point x="153" y="106"/>
      <point x="143" y="178" type="curve"/>
      <point x="143" y="340" type="line"/>
      <point x="176" y="410"/>
      <point x="240" y="470"/>
      <point x="322" y="470" type="curve" smooth="yes"/>
      <point x="432" y="470"/>
      <point x="508" y="368"/>
      <point x="508" y="259" type="curve" smooth="yes"/>
      <point x="508" y="152"/>
      <point x="428" y="50"/>
    </contour>
  </outline>
</glyph>
<glyph name="j" format="1">
  <advance width="225"/>
  <unicode hex="006A"/>
  <outline>
    <contour>
      <point x="-3" y="-181" type="curve" smooth="yes"/>
      <point x="75" y="-181"/>
      <point x="150" y="-115"/>
      <point x="150" y="-23" type="curve" smooth="yes"/>
      <point x="150" y="521" type="line"/>
      <point x="82" y="521" type="line"/>
      <point x="82" y="-27" type="line" smooth="yes"/>
      <point x="82" y="-80"/>
      <point x="36" y="-120"/>
      <point x="-11" y="-120" type="curve" smooth="yes"/>
      <point x="-36" y="-120"/>
      <point x="-63" y="-115"/>
      <point x="-84" y="-96" type="curve"/>
      <point x="-117" y="-142" type="line"/>
      <point x="-87" y="-170"/>
      <point x="-47" y="-181"/>
    </contour>
    <contour>
      <point x="150" y="630" type="line"/>
      <point x="150" y="730" type="line"/>
      <point x="82" y="730" type="line"/>
      <point x="82" y="630" type="line"/>
    </contour>
  </outline>
</glyph>
<glyph name="braceleft" format="1">
  <advance width="259"/>
  <unicode hex="007B"/>
  <outline>
    <contour>
      <point x="209" y="683" type="line"/>
      <point x="209" y="740" type="line"/>
      <point x="115" y="740" type="line" smooth="yes"/>
      <point x="108" y="740"/>
      <point x="92" y="735"/>
      <point x="92" y="710" type="curve" smooth="yes"/>
      <point x="92" y="440" type="line" smooth="yes"/>
      <point x="92" y="423"/>
      <point x="81" y="387"/>
      <point x="53" y="387" type="curve"/>
      <point x="53" y="335" type="line"/>
      <point x="78" y="332"/>
      <point x="92" y="306"/>
      <point x="92" y="280" type="curve" smooth="yes"/>
      <point x="92" y="-1" type="line" smooth="yes"/>
      <point x="92" y="-24"/>
      <point x="104" y="-31"/>
      <point x="115" y="-31" type="curve" smooth="yes"/>
      <point x="209" y="-31" type="line"/>
      <point x="209" y="26" type="line"/>
      <point x="154" y="26" type="line"/>
      <point x="154" y="298" type="line" smooth="yes"/>
      <point x="154" y="313"/>
      <point x="148" y="342"/>
      <point x="127" y="360" type="curve"/>
      <point x="148" y="379"/>
      <point x="154" y="406"/>
      <point x="154" y="422" type="curve" smooth="yes"/>
      <point x="154" y="683" type="line"/>
    </contour>
  </outline>
</glyph>
<glyph name="ordfeminine" format="1">
  <advance width="434"/>
  <unicode hex="00AA"/>
  <outline>
    <contour>
      <point x="257" y="519" type="move" name="top"/>
    </contour>
    <contour>
      <point x="450" y="11" type="move" name="bottom"/>
    </contour>
    <contour>
      <point x="166" y="346" type="curve" smooth="yes"/>
      <point x="222" y="346"/>
      <point x="274" y="369"/>
      <point x="307" y="411" type="curve"/>
      <point x="308" y="386" type="line" smooth="yes"/>
      <point x="310" y="366"/>
      <point x="325" y="351"/>
      <point x="349" y="350" type="curve" smooth="yes"/>
      <point x="358" y="350"/>
      <point x="365" y="351"/>
      <point x="377" y="352" type="curve"/>
      <point x="377" y="404" type="line"/>
      <point x="363" y="405"/>
      <point x="358" y="412"/>
      <point x="358" y="426" type="curve" smooth="yes"/>
      <point x="358" y="569" type="line" smooth="yes"/>
      <point x="358" y="659"/>
      <point x="301" y="710"/>
      <point x="208" y="710" type="curve" smooth="yes"/>
      <point x="161" y="710"/>
      <point x="116" y="695"/>
      <point x="69" y="664" type="curve"/>
      <point x="89" y="627" type="line"/>
      <point x="129" y="654"/>
      <point x="166" y="668"/>
      <point x="203" y="668" type="curve" smooth="yes"/>
      <point x="263" y="668"/>
      <point x="298" y="632"/>
      <point x="298" y="575" type="curve" smooth="yes"/>
      <point x="298" y="547" type="line"/>
      <point x="271" y="559"/>
      <point x="233" y="565"/>
      <point x="197" y="565" type="curve" smooth="yes"/>
      <point x="110" y="565"/>
      <point x="48" y="520"/>
      <point x="48" y="456" type="curve" smooth="yes"/>
      <point x="48" y="394"/>
      <point x="100" y="346"/>
    </contour>
    <contour>
      <point x="182" y="391" type="curve" smooth="yes"/>
      <point x="138" y="391"/>
      <point x="104" y="421"/>
      <point x="104" y="460" type="curve" smooth="yes"/>
      <point x="104" y="501"/>
      <point x="145" y="528"/>
      <point x="206" y="528" type="curve" smooth="yes"/>
      <point x="238" y="528"/>
      <point x="271" y="524"/>
      <point x="298" y="512" type="curve"/>
      <point x="298" y="460" type="line" smooth="yes"/>
      <point x="298" y="452"/>
      <point x="294" y="442"/>
      <point x="286" y="434" type="curve" smooth="yes"/>
      <point x="266" y="408"/>
      <point x="225" y="391"/>
    </contour>
  </outline>
</glyph>
<glyph name="logicalnot" format="1">
  <advance width="582"/>
  <unicode hex="00AC"/>
  <outline>
    <contour>
      <point x="73" y="364" type="line"/>
      <point x="73" y="302" type="line"/>
      <point x="452" y="302" type="line"/>
      <point x="452" y="126" type="line"/>
      <point x="512" y="126" type="line"/>
      <point x="512" y="364" type="line"/>
    </contour>
  </outline>
</glyph>
<glyph name="threequarters" format="1">
  <advance width="837"/>
  <unicode hex="00BE"/>
  <outline>
    <contour>
      <point x="197" y="321" type="curve" smooth="yes"/>
      <point x="283" y="321"/>
      <point x="358" y="362"/>
      <point x="358" y="431" type="curve" smooth="yes"/>
      <point x="358" y="482"/>
      <point x="318" y="524"/>
      <point x="256" y="533" type="curve"/>
      <point x="315" y="545"/>
      <point x="347" y="575"/>
      <point x="347" y="621" type="curve" smooth="yes"/>
      <point x="347" y="684"/>
      <point x="281" y="731"/>
      <point x="193" y="731" type="curve" smooth="yes"/>
      <point x="129" y="731"/>
      <point x="70" y="707"/>
      <point x="46" y="668" type="curve"/>
      <point x="76" y="634" type="line"/>
      <point x="96" y="667"/>
      <point x="138" y="690"/>
      <point x="193" y="690" type="curve" smooth="yes"/>
      <point x="250" y="690"/>
      <point x="299" y="662"/>
      <point x="299" y="618" type="curve" smooth="yes"/>
      <point x="299" y="574"/>
      <point x="248" y="552"/>
      <point x="164" y="552" type="curve" smooth="yes"/>
      <point x="141" y="552" type="line"/>
      <point x="141" y="511" type="line"/>
      <point x="164" y="511" type="line" smooth="yes"/>
      <point x="254" y="511"/>
      <point x="313" y="484"/>
      <point x="313" y="437" type="curve" smooth="yes"/>
      <point x="313" y="394"/>
      <point x="261" y="366"/>
      <point x="196" y="366" type="curve" smooth="yes"/>
      <point x="123" y="366"/>
      <point x="73" y="406"/>
      <point x="69" y="439" type="curve"/>
      <point x="42" y="410" type="line"/>
      <point x="52" y="356"/>
      <point x="114" y="321"/>
    </contour>
    <contour>
      <point x="741" y="0" type="line"/>
      <point x="741" y="103" type="line"/>
      <point x="798" y="103" type="line"/>
      <point x="798" y="147" type="line"/>
      <point x="741" y="147" type="line"/>
      <point x="741" y="399" type="line"/>
      <point x="710" y="399" type="line"/>
      <point x="468" y="145" type="line"/>
      <point x="468" y="103" type="line"/>
      <point x="696" y="103" type="line"/>
      <point x="696" y="0" type="line"/>
    </contour>
    <contour>
      <point x="697" y="338" type="line"/>
      <point x="697" y="147" type="line"/>
      <point x="516" y="147" type="line"/>
    </contour>
    <contour>
      <point x="200" y="-4" type="line"/>
      <point x="473" y="344" type="line"/>
      <point x="752" y="684" type="line"/>
      <point x="717" y="714" type="line"/>
      <point x="445" y="367" type="line"/>
      <point x="166" y="27" type="line"/>
    </contour>
  </outline>
</glyph>
<glyph name="Ntilde" format="1">
  <advance width="772"/>
  <unicode hex="00D1"/>
  <outline>
    <contour>
      <point x="622" y="0" type="line"/>
      <point x="683" y="0" type="line"/>
      <point x="683" y="709" type="line"/>
      <point x="613" y="709" type="line"/>
      <point x="613" y="119" type="line"/>
      <point x="143" y="710" type="line"/>
      <point x="89" y="710" type="line"/>
      <point x="89" y="0" type="line"/>
      <point x="159" y="0" type="line"/>
      <point x="159" y="580" type="line"/>
    </contour>
    <contour>
      <point x="451" y="825" type="curve" smooth="yes"/>
      <point x="532" y="825"/>
      <point x="549" y="904"/>
      <point x="549" y="917" type="curve"/>
      <point x="507" y="917" type="line"/>
      <point x="507" y="913"/>
      <point x="502" y="868"/>
      <point x="450" y="868" type="curve" smooth="yes"/>
      <point x="400" y="868"/>
      <point x="378" y="910"/>
      <point x="322" y="910" type="curve" smooth="yes"/>
      <point x="247" y="910"/>
      <point x="231" y="831"/>
      <point x="231" y="817" type="curve"/>
      <point x="273" y="817" type="line"/>
      <point x="273" y="822"/>
      <point x="279" y="865"/>
      <point x="323" y="865" type="curve" smooth="yes"/>
      <point x="365" y="865"/>
      <point x="391" y="825"/>
    </contour>
  </outline>
</glyph>
<glyph name="Udieresis" format="1">
  <advance width="755"/>
  <unicode hex="00DC"/>
  <outline>
    <contour>
      <point x="333" y="820" type="line"/>
      <point x="333" y="914" type="line"/>
      <point x="275" y="914" type="line"/>
      <point x="275" y="820" type="line"/>
    </contour>
    <contour>
      <point x="482" y="820" type="line"/>
      <point x="482" y="914" type="line"/>
      <point x="424" y="914" type="line"/>
      <point x="424" y="820" type="line"/>
    </contour>
    <contour>
      <point x="377" y="58" type="curve" smooth="yes"/>
      <point x="201" y="58"/>
      <point x="148" y="203"/>
      <point x="148" y="352" type="curve" smooth="yes"/>
      <point x="148" y="710" type="line"/>
      <point x="79" y="710" type="line"/>
      <point x="79" y="352" type="line" smooth="yes"/>
      <point x="79" y="171"/>
      <point x="153" y="-5"/>
      <point x="378" y="-5" type="curve" smooth="yes"/>
      <point x="596" y="-5"/>
      <point x="677" y="161"/>
      <point x="677" y="352" type="curve" smooth="yes"/>
      <point x="677" y="710" type="line"/>
      <point x="607" y="710" type="line"/>
      <point x="607" y="352" type="line" smooth="yes"/>
      <point x="607" y="207"/>
      <point x="557" y="58"/>
    </contour>
  </outline>
</glyph>
<glyph name="ntilde" format="1">
  <advance width="583"/>
  <unicode hex="00F1"/>
  <outline>
    <contour>
      <point x="513" y="305" type="line"/>
      <point x="513" y="442"/>
      <point x="474" y="530"/>
      <point x="358" y="530" type="curve" smooth="yes"/>
      <point x="265" y="530"/>
      <point x="179" y="479"/>
      <point x="137" y="403" type="curve"/>
      <point x="137" y="521" type="line"/>
      <point x="75" y="521" type="line"/>
      <point x="75" y="0" type="line"/>
      <point x="143" y="0" type="line"/>
      <point x="143" y="319" type="line"/>
      <point x="168" y="405"/>
      <point x="253" y="468"/>
      <point x="333" y="468" type="curve" smooth="yes"/>
      <point x="409" y="468"/>
      <point x="445" y="414"/>
      <point x="445" y="291" type="curve" smooth="yes"/>
      <point x="445" y="0" type="line"/>
      <point x="513" y="0" type="line"/>
    </contour>
    <contour>
      <point x="358" y="638" type="curve" smooth="yes"/>
      <point x="439" y="638"/>
      <point x="456" y="717"/>
      <point x="456" y="730" type="curve"/>
      <point x="414" y="730" type="line"/>
      <point x="414" y="726"/>
      <point x="409" y="681"/>
      <point x="357" y="681" type="curve" smooth="yes"/>
      <point x="307" y="681"/>
      <point x="285" y="723"/>
      <point x="229" y="723" type="curve" smooth="yes"/>
      <point x="154" y="723"/>
      <point x="138" y="644"/>
      <point x="138" y="630" type="curve"/>
      <point x="180" y="630" type="line"/>
      <point x="180" y="635"/>
      <point x="186" y="678"/>
      <point x="230" y="678" type="curve" smooth="yes"/>
      <point x="272" y="678"/>
      <point x="298" y="638"/>
    </contour>
  </outline>
</glyph>
<glyph name="divide" format="1">
  <advance width="537"/>
  <unicode hex="00F7"/>
  <outline>
    <contour>
      <point x="298" y="399" type="line"/>
      <point x="298" y="490" type="line"/>
      <point x="239" y="490" type="line"/>
      <point x="239" y="399" type="line"/>
    </contour>
    <contour>
      <point x="298" y="74" type="line"/>
      <point x="298" y="164" type="line"/>
      <point x="239" y="164" type="line"/>
      <point x="239" y="74" type="line"/>
    </contour>
    <contour>
      <point x="470" y="254" type="line"/>
      <point x="470" y="311" type="line"/>
      <point x="67" y="311" type="line"/>
      <point x="67" y="254" type="line"/>
    </contour>
  </outline>
</glyph>
<glyph name="yacute" format="1">
  <advance width="542"/>
  <unicode hex="00FD"/>
  <outline>
    <contour>
      <point x="105" y="-220" type="line"/>
      <point x="122" y="-223"/>
      <point x="133" y="-223"/>
      <point x="146" y="-223" type="curve" smooth="yes"/>
      <point x="204" y="-223"/>
      <point x="237" y="-190"/>
      <point x="252" y="-151" type="curve" smooth="yes"/>
      <point x="522" y="521" type="line"/>
      <point x="457" y="521" type="line"/>
      <point x="278" y="63" type="line"/>
      <point x="85" y="521" type="line"/>
      <point x="15" y="521" type="line"/>
      <point x="242" y="0" type="line"/>
      <point x="182" y="-144"/>
      <point x="182" y="-162"/>
      <point x="135" y="-162" type="curve" smooth="yes"/>
      <point x="126" y="-162"/>
      <point x="115" y="-161"/>
      <point x="105" y="-160" type="curve"/>
    </contour>
    <contour>
      <point x="371" y="730" type="line"/>
      <point x="299" y="730" type="line"/>
      <point x="240" y="637" type="line"/>
      <point x="285" y="620" type="line"/>
    </contour>
  </outline>
</glyph>
<glyph name="Eogonek" format="1">
  <advance width="609"/>
  <unicode hex="0118"/>
  <outline>
    <contour>
      <point x="159" y="62" type="line"/>
      <point x="159" y="333" type="line"/>
      <point x="506" y="333" type="line"/>
      <point x="506" y="392" type="line"/>
      <point x="159" y="392" type="line"/>
      <point x="159" y="648" type="line"/>
      <point x="557" y="648" type="line"/>
      <point x="557" y="710" type="line"/>
      <point x="89" y="710" type="line"/>
      <point x="89" y="0" type="line"/>
      <point x="517" y="0" type="line"/>
      <point x="465" y="-36"/>
      <point x="442" y="-69"/>
      <point x="442" y="-102" type="curve" smooth="yes"/>
      <point x="442" y="-137"/>
      <point x="468" y="-165"/>
      <point x="517" y="-175" type="curve"/>
      <point x="536" y="-137" type="line"/>
      <point x="501" y="-132"/>
      <point x="484" y="-117"/>
      <point x="484" y="-93" type="curve" smooth="yes"/>
      <point x="484" y="-64"/>
      <point x="507" y="-37"/>
      <point x="566" y="0" type="curve"/>
      <point x="566" y="62" type="line"/>
    </contour>
  </outline>
</glyph>
<glyph name="Gbreve" format="1">
  <advance width="716"/>
  <unicode hex="011E"/>
  <outline>
    <contour>
      <point x="602" y="0" type="line"/>
      <point x="661" y="0" type="line"/>
      <point x="661" y="349" type="line"/>
      <point x="444" y="349" type="line"/>
      <point x="444" y="295" type="line"/>
      <point x="602" y="295" type="line"/>
      <point x="602" y="177" type="line"/>
      <point x="534" y="95"/>
      <point x="460" y="58"/>
      <point x="379" y="58" type="curve" smooth="yes"/>
      <point x="228" y="58"/>
      <point x="112" y="195"/>
      <point x="112" y="355" type="curve" smooth="yes"/>
      <point x="112" y="506"/>
      <point x="212" y="652"/>
      <point x="369" y="652" type="curve" smooth="yes"/>
      <point x="463" y="652"/>
      <point x="541" y="612"/>
      <point x="587" y="524" type="curve"/>
      <point x="641" y="560" type="line"/>
      <point x="596" y="651"/>
      <point x="510" y="715"/>
      <point x="370" y="715" type="curve" smooth="yes"/>
      <point x="181" y="715"/>
      <point x="42" y="546"/>
      <point x="42" y="356" type="curve" smooth="yes"/>
      <point x="42" y="176"/>
      <point x="183" y="-5"/>
      <point x="374" y="-5" type="curve" smooth="yes"/>
      <point x="460" y="-5"/>
      <point x="536" y="31"/>
      <point x="602" y="104" type="curve"/>
    </contour>
    <contour>
      <point x="369" y="851" type="curve" smooth="yes"/>
      <point x="340" y="851"/>
      <point x="313" y="883"/>
      <point x="313" y="917" type="curve"/>
      <point x="271" y="917" type="line"/>
      <point x="271" y="860"/>
      <point x="314" y="816"/>
      <point x="369" y="816" type="curve" smooth="yes"/>
      <point x="423" y="816"/>
      <point x="467" y="860"/>
      <point x="467" y="917" type="curve"/>
      <point x="426" y="917" type="line"/>
      <point x="422" y="880"/>
      <point x="397" y="851"/>
    </contour>
  </outline>
</glyph>
<glyph name="hcircumflex" format="1">
  <advance width="583"/>
  <unicode hex="0125"/>
  <outline>
    <contour>
      <point x="256" y="623" type="line"/>
      <point x="337" y="686" type="line"/>
      <point x="417" y="623" type="line"/>
      <point x="454" y="644" type="line"/>
      <point x="360" y="728" type="line"/>
      <point x="313" y="728" type="line"/>
      <point x="220" y="644" type="line"/>
    </contour>
    <contour>
      <point x="513" y="305" type="line"/>
      <point x="513" y="439"/>
      <point x="467" y="530"/>
      <point x="348" y="530" type="curve" smooth="yes"/>
      <point x="263" y="530"/>
      <point x="184" y="481"/>
      <point x="143" y="403" type="curve"/>
      <point x="143" y="730" type="line"/>
      <point x="75" y="730" type="line"/>
      <point x="75" y="0" type="line"/>
      <point x="143" y="0" type="line"/>
      <point x="143" y="319" type="line"/>
      <point x="167" y="404"/>
      <point x="248" y="468"/>
      <point x="325" y="468" type="curve" smooth="yes"/>
      <point x="403" y="468"/>
      <point x="445" y="409"/>
      <point x="445" y="291" type="curve" smooth="yes"/>
      <point x="445" y="0" type="line"/>
      <point x="513" y="0" type="line"/>
    </contour>
  </outline>
</glyph>
<glyph name="ibreve" format="1">
  <advance width="218"/>
  <unicode hex="012D"/>
  <outline>
    <contour>
      <point x="143" y="0" type="line"/>
      <point x="143" y="521" type="line"/>
      <point x="75" y="521" type="line"/>
      <point x="75" y="0" type="line"/>
    </contour>
    <contour>
      <point x="109" y="664" type="curve" smooth="yes"/>
      <point x="80" y="664"/>
      <point x="53" y="696"/>
      <point x="53" y="730" type="curve"/>
      <point x="11" y="730" type="line"/>
      <point x="11" y="673"/>
      <point x="54" y="629"/>
      <point x="109" y="629" type="curve" smooth="yes"/>
      <point x="163" y="629"/>
      <point x="207" y="673"/>
      <point x="207" y="730" type="curve"/>
      <point x="166" y="730" type="line"/>
      <point x="162" y="693"/>
      <point x="137" y="664"/>
    </contour>
  </outline>
</glyph>
<glyph name="Iogonek" format="1">
  <advance width="248"/>
  <unicode hex="012E"/>
  <outline>
    <contour>
      <point x="110" y="-175" type="curve"/>
      <point x="129" y="-137" type="line"/>
      <point x="94" y="-132"/>
      <point x="77" y="-117"/>
      <point x="77" y="-93" type="curve" smooth="yes"/>
      <point x="77" y="-64"/>
      <point x="100" y="-37"/>
      <point x="159" y="0" type="curve"/>
      <point x="159" y="710" type="line"/>
      <point x="89" y="710" type="line"/>
      <point x="89" y="0" type="line"/>
      <point x="110" y="0" type="line"/>
      <point x="58" y="-36"/>
      <point x="35" y="-69"/>
      <point x="35" y="-102" type="curve" smooth="yes"/>
      <point x="35" y="-137"/>
      <point x="61" y="-165"/>
    </contour>
  </outline>
</glyph>
<glyph name="Lcaron" format="1">
  <advance width="583"/>
  <unicode hex="013D"/>
  <outline>
    <contour>
      <point x="466" y="730" type="line"/>
      <point x="394" y="730" type="line"/>
      <point x="335" y="637" type="line"/>
      <point x="380" y="620" type="line"/>
    </contour>
    <contour>
      <point x="569" y="0" type="line"/>
      <point x="569" y="62" type="line"/>
      <point x="159" y="62" type="line"/>
      <point x="159" y="710" type="line"/>
      <point x="89" y="710" type="line"/>
      <point x="89" y="0" type="line"/>
    </contour>
  </outline>
</glyph>
<glyph name="Ncommaaccent" format="1">
  <advance width="772"/>
  <unicode hex="0145"/>
  <outline>
    <contour>
      <point x="393" y="-199" type="line"/>
      <point x="418" y="-125" type="line"/>
      <point x="418" y="-49" type="line"/>
      <point x="355" y="-49" type="line"/>
      <point x="355" y="-125" type="line"/>
      <point x="375" y="-125" type="line"/>
      <point x="358" y="-199" type="line"/>
    </contour>
    <contour>
      <point x="622" y="0" type="line"/>
      <point x="683" y="0" type="line"/>
      <point x="683" y="709" type="line"/>
      <point x="613" y="709" type="line"/>
      <point x="613" y="119" type="line"/>
      <point x="143" y="710" type="line"/>
      <point x="89" y="710" type="line"/>
      <point x="89" y="0" type="line"/>
      <point x="159" y="0" type="line"/>
      <point x="159" y="580" type="line"/>
    </contour>
  </outline>
</glyph>
<glyph name="napostrophe" format="1">
  <advance width="583"/>
  <unicode hex="0149"/>
  <outline>
    <contour>
      <point x="129" y="730" type="line"/>
      <point x="35" y="730" type="line"/>
      <point x="35" y="696" type="line"/>
      <point x="-3" y="637" type="line"/>
      <point x="42" y="620" type="line"/>
    </contour>
    <contour>
      <point x="513" y="305" type="line"/>
      <point x="513" y="442"/>
      <point x="474" y="530"/>
      <point x="358" y="530" type="curve" smooth="yes"/>
      <point x="265" y="530"/>
      <point x="179" y="479"/>
      <point x="137" y="403" type="curve"/>
      <point x="137" y="521" type="line"/>
      <point x="75" y="521" type="line"/>
      <point x="75" y="0" type="line"/>
      <point x="143" y="0" type="line"/>
      <point x="143" y="319" type="line"/>
      <point x="168" y="405"/>
      <point x="253" y="468"/>
      <point x="333" y="468" type="curve" smooth="yes"/>
      <point x="409" y="468"/>
      <point x="445" y="414"/>
      <point x="445" y="291" type="curve" smooth="yes"/>
      <point x="445" y="0" type="line"/>
      <point x="513" y="0" type="line"/>
    </contour>
  </outline>
</glyph>
<glyph name="Rcommaaccent" format="1">
  <advance width="653"/>
  <unicode hex="0156"/>
  <outline>
    <contour>
      <point x="331" y="-199" type="line"/>
      <point x="356" y="-125" type="line"/>
      <point x="356" y="-49" type="line"/>
      <point x="293" y="-49" type="line"/>
      <point x="293" y="-125" type="line"/>
      <point x="313" y="-125" type="line"/>
      <point x="296" y="-199" type="line"/>
    </contour>
    <contour>
      <point x="159" y="0" type="line"/>
      <point x="159" y="262" type="line"/>
      <point x="369" y="262" type="line"/>
      <point x="536" y="0" type="line"/>
      <point x="615" y="0" type="line"/>
      <point x="441" y="274" type="line"/>
      <point x="536" y="293"/>
      <point x="599" y="384"/>
      <point x="599" y="487" type="curve" smooth="yes"/>
      <point x="599" y="597"/>
      <point x="511" y="710"/>
      <point x="389" y="710" type="curve" smooth="yes"/>
      <point x="89" y="710" type="line"/>
      <point x="89" y="0" type="line"/>
    </contour>
    <contour>
      <point x="159" y="648" type="line"/>
      <point x="385" y="648" type="line" smooth="yes"/>
      <point x="463" y="648"/>
      <point x="529" y="573"/>
      <point x="529" y="487" type="curve" smooth="yes"/>
      <point x="529" y="403"/>
      <point x="475" y="324"/>
      <point x="391" y="324" type="curve" smooth="yes"/>
      <point x="159" y="324" type="line"/>
    </contour>
  </outline>
</glyph>
<glyph name="rcommaaccent" format="1">
  <advance width="351"/>
  <unicode hex="0157"/>
  <outline>
    <contour>
      <point x="111" y="-199" type="line"/>
      <point x="136" y="-125" type="line"/>
      <point x="136" y="-49" type="line"/>
      <point x="73" y="-49" type="line"/>
      <point x="73" y="-125" type="line"/>
      <point x="93" y="-125" type="line"/>
      <point x="76" y="-199" type="line"/>
    </contour>
    <contour>
      <point x="335" y="523" type="line"/>
      <point x="330" y="524"/>
      <point x="327" y="524"/>
      <point x="322" y="524" type="curve" smooth="yes"/>
      <point x="248" y="524"/>
      <point x="178" y="476"/>
      <point x="139" y="396" type="curve"/>
      <point x="139" y="521" type="line"/>
      <point x="75" y="521" type="line"/>
      <point x="75" y="0" type="line"/>
      <point x="143" y="0" type="line"/>
      <point x="143" y="324" type="line"/>
      <point x="171" y="408"/>
      <point x="244" y="458"/>
      <point x="335" y="461" type="curve"/>
    </contour>
  </outline>
</glyph>
<glyph name="uni015F" format="1">
  <advance width="488"/>
  <unicode hex="015F"/>
  <outline>
    <contour>
      <point x="154" y="-157" type="line"/>
      <point x="180" y="-167"/>
      <point x="215" y="-176"/>
      <point x="253" y="-176" type="curve" smooth="yes"/>
      <point x="319" y="-176"/>
      <point x="355" y="-151"/>
      <point x="355" y="-106" type="curve" smooth="yes"/>
      <point x="355" y="-66"/>
      <point x="325" y="-45"/>
      <point x="279" y="-45" type="curve" smooth="yes"/>
      <point x="269" y="-45"/>
      <point x="253" y="-46"/>
      <point x="241" y="-51" type="curve"/>
      <point x="267" y="-9" type="line"/>
      <point x="379" y="-3"/>
      <point x="451" y="56"/>
      <point x="451" y="146" type="curve" smooth="yes"/>
      <point x="451" y="235"/>
      <point x="382" y="261"/>
      <point x="248" y="293" type="curve" smooth="yes"/>
      <point x="155" y="315"/>
      <point x="118" y="327"/>
      <point x="118" y="382" type="curve" smooth="yes"/>
      <point x="118" y="450"/>
      <point x="175" y="479"/>
      <point x="246" y="479" type="curve" smooth="yes"/>
      <point x="305" y="479"/>
      <point x="364" y="459"/>
      <point x="403" y="419" type="curve"/>
      <point x="436" y="459" type="line"/>
      <point x="396" y="501"/>
      <point x="328" y="530"/>
      <point x="248" y="530" type="curve" smooth="yes"/>
      <point x="141" y="530"/>
      <point x="53" y="477"/>
      <point x="53" y="372" type="curve" smooth="yes"/>
      <point x="53" y="290"/>
      <point x="107" y="269"/>
      <point x="228" y="239" type="curve" smooth="yes"/>
      <point x="333" y="214"/>
      <point x="385" y="198"/>
      <point x="385" y="140" type="curve" smooth="yes"/>
      <point x="385" y="78"/>
      <point x="330" y="42"/>
      <point x="247" y="42" type="curve" smooth="yes"/>
      <point x="178" y="42"/>
      <point x="118" y="66"/>
      <point x="60" y="114" type="curve"/>
      <point x="29" y="68" type="line"/>
      <point x="80" y="21"/>
      <point x="153" y="-5"/>
      <point x="228" y="-9" type="curve"/>
      <point x="186" y="-87" type="line"/>
      <point x="203" y="-81"/>
      <point x="238" y="-73"/>
      <point x="266" y="-73" type="curve" smooth="yes"/>
      <point x="296" y="-73"/>
      <point x="316" y="-82"/>
      <point x="316" y="-109" type="curve" smooth="yes"/>
      <point x="316" y="-134"/>
      <point x="296" y="-144"/>
      <point x="259" y="-144" type="curve" smooth="yes"/>
      <point x="224" y="-144"/>
      <point x="189" y="-135"/>
      <point x="171" y="-126" type="curve"/>
    </contour>
  </outline>
</glyph>
<glyph name="Scaron" format="1">
  <advance width="607"/>
  <unicode hex="0160"/>
  <outline>
    <contour>
      <point x="191" y="913" type="line"/>
      <point x="289" y="827" type="line"/>
      <point x="339" y="827" type="line"/>
      <point x="438" y="913" type="line"/>
      <point x="399" y="933" type="line"/>
      <point x="314" y="870" type="line"/>
      <point x="229" y="933" type="line"/>
    </contour>
    <contour>
      <point x="538" y="633" type="line"/>
      <point x="479" y="685"/>
      <point x="405" y="715"/>
      <point x="311" y="715" type="curve" smooth="yes"/>
      <point x="163" y="715"/>
      <point x="58" y="643"/>
      <point x="58" y="511" type="curve" smooth="yes"/>
      <point x="58" y="396"/>
      <point x="137" y="360"/>
      <point x="285" y="326" type="curve" smooth="yes"/>
      <point x="426" y="294"/>
      <point x="499" y="266"/>
      <point x="499" y="179" type="curve" smooth="yes"/>
      <point x="499" y="97"/>
      <point x="432" y="56"/>
      <point x="319" y="56" type="curve" smooth="yes"/>
      <point x="211" y="56"/>
      <point x="118" y="100"/>
      <point x="67" y="154" type="curve"/>
      <point x="32" y="97" type="line"/>
      <point x="111" y="29"/>
      <point x="207" y="-6"/>
      <point x="317" y="-6" type="curve" smooth="yes"/>
      <point x="466" y="-6"/>
      <point x="573" y="55"/>
      <point x="573" y="186" type="curve" smooth="yes"/>
      <point x="573" y="313"/>
      <point x="478" y="352"/>
      <point x="327" y="385" type="curve" smooth="yes"/>
      <point x="190" y="415"/>
      <point x="130" y="437"/>
      <point x="130" y="521" type="curve" smooth="yes"/>
      <point x="130" y="602"/>
      <point x="185" y="653"/>
      <point x="310" y="653" type="curve" smooth="yes"/>
      <point x="395" y="653"/>
      <point x="464" y="622"/>
      <point x="504" y="577" type="curve"/>
    </contour>
  </outline>
</glyph>
<glyph name="utilde" format="1">
  <advance width="594"/>
  <unicode hex="0169"/>
  <outline>
    <contour>
      <point x="238" y="-10" type="curve" smooth="yes"/>
      <point x="326" y="-10"/>
      <point x="410" y="37"/>
      <point x="455" y="118" type="curve"/>
      <point x="455" y="58" type="line" smooth="yes"/>
      <point x="455" y="22"/>
      <point x="477" y="-1"/>
      <point x="509" y="-2" type="curve" smooth="yes"/>
      <point x="513" y="-2"/>
      <point x="523" y="-2"/>
      <point x="539" y="0" type="curve"/>
      <point x="539" y="60" type="line"/>
      <point x="522" y="60"/>
      <point x="515" y="69"/>
      <point x="515" y="88" type="curve" smooth="yes"/>
      <point x="515" y="521" type="line"/>
      <point x="447" y="521" type="line"/>
      <point x="447" y="193" type="line"/>
      <point x="416" y="106"/>
      <point x="339" y="50"/>
      <point x="259" y="50" type="curve" smooth="yes"/>
      <point x="178" y="50"/>
      <point x="138" y="108"/>
      <point x="138" y="227" type="curve" smooth="yes"/>
      <point x="138" y="521" type="line"/>
      <point x="70" y="521" type="line"/>
      <point x="70" y="215" type="line" smooth="yes"/>
      <point x="70" y="67"/>
      <point x="126" y="-10"/>
    </contour>
    <contour>
      <point x="353" y="638" type="curve" smooth="yes"/>
      <point x="434" y="638"/>
      <point x="451" y="717"/>
      <point x="451" y="730" type="curve"/>
      <point x="409" y="730" type="line"/>
      <point x="409" y="726"/>
      <point x="404" y="681"/>
      <point x="352" y="681" type="curve" smooth="yes"/>
      <point x="302" y="681"/>
      <point x="280" y="723"/>
      <point x="224" y="723" type="curve" smooth="yes"/>
      <point x="149" y="723"/>
      <point x="133" y="644"/>
      <point x="133" y="630" type="curve"/>
      <point x="175" y="630" type="line"/>
      <point x="175" y="635"/>
      <point x="181" y="678"/>
      <point x="225" y="678" type="curve" smooth="yes"/>
      <point x="267" y="678"/>
      <point x="293" y="638"/>
    </contour>
  </outline>
</glyph>
<glyph name="uring" format="1">
  <advance width="594"/>
  <unicode hex="016F"/>
  <outline>
    <contour>
      <point x="217" y="665" type="curve" smooth="yes"/>
      <point x="217" y="625"/>
      <point x="248" y="599"/>
      <point x="291" y="599" type="curve" smooth="yes"/>
      <point x="334" y="599"/>
      <point x="365" y="625"/>
      <point x="365" y="665" type="curve" smooth="yes"/>
      <point x="365" y="704"/>
      <point x="334" y="730"/>
      <point x="291" y="730" type="curve" smooth="yes"/>
      <point x="248" y="730"/>
      <point x="217" y="704"/>
    </contour>
    <contour>
      <point x="291" y="703" type="curve" smooth="yes"/>
      <point x="314" y="703"/>
      <point x="332" y="688"/>
      <point x="332" y="665" type="curve" smooth="yes"/>
      <point x="332" y="642"/>
      <point x="312" y="626"/>
      <point x="291" y="626" type="curve" smooth="yes"/>
      <point x="268" y="626"/>
      <point x="251" y="643"/>
      <point x="251" y="665" type="curve" smooth="yes"/>
      <point x="251" y="688"/>
      <point x="269" y="703"/>
    </contour>
    <contour>
      <point x="238" y="-10" type="curve" smooth="yes"/>
      <point x="326" y="-10"/>
      <point x="410" y="37"/>
      <point x="455" y="118" type="curve"/>
      <point x="455" y="58" type="line" smooth="yes"/>
      <point x="455" y="22"/>
      <point x="477" y="-1"/>
      <point x="509" y="-2" type="curve" smooth="yes"/>
      <point x="513" y="-2"/>
      <point x="523" y="-2"/>
      <point x="539" y="0" type="curve"/>
      <point x="539" y="60" type="line"/>
      <point x="522" y="60"/>
      <point x="515" y="69"/>
      <point x="515" y="88" type="curve" smooth="yes"/>
      <point x="515" y="521" type="line"/>
      <point x="447" y="521" type="line"/>
      <point x="447" y="193" type="line"/>
      <point x="416" y="106"/>
      <point x="339" y="50"/>
      <point x="259" y="50" type="curve" smooth="yes"/>
      <point x="178" y="50"/>
      <point x="138" y="108"/>
      <point x="138" y="227" type="curve" smooth="yes"/>
      <point x="138" y="521" type="line"/>
      <point x="70" y="521" type="line"/>
      <point x="70" y="215" type="line" smooth="yes"/>
      <point x="70" y="67"/>
      <point x="126" y="-10"/>
    </contour>
  </outline>
</glyph>
<glyph name="Wcircumflex" format="1">
  <advance width="1046"/>
  <unicode hex="0174"/>
  <outline>
    <contour>
      <point x="437" y="811" type="line"/>
      <point x="522" y="874" type="line"/>
      <point x="607" y="811" type="line"/>
      <point x="646" y="832" type="line"/>
      <point x="547" y="917" type="line"/>
      <point x="497" y="917" type="line"/>
      <point x="399" y="832" type="line"/>
    </contour>
    <contour>
      <point x="480" y="402" type="line"/>
      <point x="345" y="81" type="line"/>
      <point x="87" y="710" type="line"/>
      <point x="12" y="710" type="line"/>
      <point x="312" y="0" type="line"/>
      <point x="373" y="0" type="line"/>
      <point x="523" y="351" type="line"/>
      <point x="672" y="0" type="line"/>
      <point x="734" y="0" type="line"/>
      <point x="1035" y="710" type="line"/>
      <point x="959" y="710" type="line"/>
      <point x="702" y="81" type="line"/>
      <point x="566" y="402" type="line"/>
      <point x="690" y="705" type="line"/>
      <point x="623" y="705" type="line"/>
      <point x="522" y="453" type="line"/>
      <point x="422" y="705" type="line"/>
      <point x="356" y="705" type="line"/>
    </contour>
  </outline>
</glyph>
<glyph name="Ycircumflex" format="1">
  <advance width="651"/>
  <unicode hex="0176"/>
  <outline>
    <contour>
      <point x="16" y="710" type="line"/>
      <point x="290" y="266" type="line"/>
      <point x="290" y="0" type="line"/>
      <point x="360" y="0" type="line"/>
      <point x="360" y="264" type="line"/>
      <point x="635" y="710" type="line"/>
      <point x="559" y="710" type="line"/>
      <point x="325" y="328" type="line"/>
      <point x="93" y="710" type="line"/>
    </contour>
    <contour>
      <point x="240" y="811" type="line"/>
      <point x="325" y="874" type="line"/>
      <point x="410" y="811" type="line"/>
      <point x="449" y="832" type="line"/>
      <point x="350" y="917" type="line"/>
      <point x="300" y="917" type="line"/>
      <point x="202" y="832" type="line"/>
    </contour>
  </outline>
</glyph>
<glyph name="ycircumflex" format="1">
  <advance width="542"/>
  <unicode hex="0177"/>
  <outline>
    <contour>
      <point x="105" y="-220" type="line"/>
      <point x="122" y="-223"/>
      <point x="133" y="-223"/>
      <point x="146" y="-223" type="curve" smooth="yes"/>
      <point x="204" y="-223"/>
      <point x="237" y="-190"/>
      <point x="252" y="-151" type="curve" smooth="yes"/>
      <point x="522" y="521" type="line"/>
      <point x="457" y="521" type="line"/>
      <point x="278" y="63" type="line"/>
      <point x="85" y="521" type="line"/>
      <point x="15" y="521" type="line"/>
      <point x="242" y="0" type="line"/>
      <point x="182" y="-144"/>
      <point x="182" y="-162"/>
      <point x="135" y="-162" type="curve" smooth="yes"/>
      <point x="126" y="-162"/>
      <point x="115" y="-161"/>
      <point x="105" y="-160" type="curve"/>
    </contour>
    <contour>
      <point x="193" y="624" type="line"/>
      <point x="278" y="687" type="line"/>
      <point x="363" y="624" type="line"/>
      <point x="402" y="645" type="line"/>
      <point x="303" y="730" type="line"/>
      <point x="253" y="730" type="line"/>
      <point x="155" y="645" type="line"/>
    </contour>
  </outline>
</glyph>
<glyph name="Ydieresis" format="1">
  <advance width="651"/>
  <unicode hex="0178"/>
  <outline>
    <contour>
      <point x="16" y="710" type="line"/>
      <point x="290" y="266" type="line"/>
      <point x="290" y="0" type="line"/>
      <point x="360" y="0" type="line"/>
      <point x="360" y="264" type="line"/>
      <point x="635" y="710" type="line"/>
      <point x="559" y="710" type="line"/>
      <point x="325" y="328" type="line"/>
      <point x="93" y="710" type="line"/>
    </contour>
    <contour>
      <point x="279" y="820" type="line"/>
      <point x="279" y="914" type="line"/>
      <point x="221" y="914" type="line"/>
      <point x="221" y="820" type="line"/>
    </contour>
    <contour>
      <point x="428" y="820" type="line"/>
      <point x="428" y="914" type="line"/>
      <point x="370" y="914" type="line"/>
      <point x="370" y="820" type="line"/>
    </contour>
  </outline>
</glyph>
<glyph name="Zcaron" format="1">
  <advance width="629"/>
  <unicode hex="017D"/>
  <outline>
    <contour>
      <point x="208" y="897" type="line"/>
      <point x="306" y="811" type="line"/>
      <point x="356" y="811" type="line"/>
      <point x="455" y="897" type="line"/>
      <point x="416" y="917" type="line"/>
      <point x="331" y="854" type="line"/>
      <point x="246" y="917" type="line"/>
    </contour>
    <contour>
      <point x="31" y="0" type="line"/>
      <point x="594" y="0" type="line"/>
      <point x="594" y="62" type="line"/>
      <point x="118" y="62" type="line"/>
      <point x="595" y="655" type="line"/>
      <point x="595" y="710" type="line"/>
      <point x="39" y="710" type="line"/>
      <point x="39" y="648" type="line"/>
      <point x="514" y="648" type="line"/>
      <point x="31" y="55" type="line"/>
    </contour>
  </outline>
</glyph>
<glyph name="zcaron" format="1">
  <advance width="492"/>
  <unicode hex="017E"/>
  <outline>
    <contour>
      <point x="132" y="710" type="line"/>
      <point x="230" y="624" type="line"/>
      <point x="280" y="624" type="line"/>
      <point x="379" y="710" type="line"/>
      <point x="340" y="730" type="line"/>
      <point x="255" y="667" type="line"/>
      <point x="170" y="730" type="line"/>
    </contour>
    <contour>
      <point x="31" y="0" type="line"/>
      <point x="456" y="0" type="line"/>
      <point x="456" y="51" type="line"/>
      <point x="106" y="51" type="line"/>
      <point x="457" y="475" type="line"/>
      <point x="457" y="521" type="line"/>
      <point x="39" y="521" type="line"/>
      <point x="39" y="470" type="line"/>
      <point x="383" y="470" type="line"/>
      <point x="31" y="46" type="line"/>
    </contour>
  </outline>
</glyph>
<glyph name="uni01C9" format="1">
  <advance width="497"/>
  <unicode hex="01C9"/>
  <outline>
    <contour>
      <point x="269" y="-181" type="curve" smooth="yes"/>
      <point x="347" y="-181"/>
      <point x="422" y="-115"/>
      <point x="422" y="-23" type="curve" smooth="yes"/>
      <point x="422" y="521" type="line"/>
      <point x="354" y="521" type="line"/>
      <point x="354" y="-27" type="line" smooth="yes"/>
      <point x="354" y="-80"/>
      <point x="308" y="-120"/>
      <point x="261" y="-120" type="curve" smooth="yes"/>
      <point x="236" y="-120"/>
      <point x="209" y="-115"/>
      <point x="188" y="-96" type="curve"/>
      <point x="155" y="-142" type="line"/>
      <point x="185" y="-170"/>
      <point x="225" y="-181"/>
    </contour>
    <contour>
      <point x="422" y="630" type="line"/>
      <point x="422" y="730" type="line"/>
      <point x="354" y="730" type="line"/>
      <point x="354" y="630" type="line"/>
    </contour>
    <contour>
      <point x="78" y="95" type="line"/>
      <point x="78" y="32"/>
      <point x="117" y="-6"/>
      <point x="179" y="-6" type="curve" smooth="yes"/>
      <point x="206" y="-6"/>
      <point x="248" y="2"/>
      <point x="273" y="12" type="curve"/>
      <point x="261" y="67" type="line"/>
      <point x="244" y="60"/>
      <point x="222" y="56"/>
      <point x="207" y="56" type="curve" smooth="yes"/>
      <point x="169" y="56"/>
      <point x="146" y="79"/>
      <point x="146" y="118" type="curve" smooth="yes"/>
      <point x="146" y="730" type="line"/>
      <point x="78" y="730" type="line"/>
    </contour>
  </outline>
</glyph>
<glyph name="uni01CC" format="1">
  <advance width="808"/>
  <unicode hex="01CC"/>
  <outline>
    <contour>
      <point x="580" y="-181" type="curve" smooth="yes"/>
      <point x="658" y="-181"/>
      <point x="733" y="-115"/>
      <point x="733" y="-23" type="curve" smooth="yes"/>
      <point x="733" y="521" type="line"/>
      <point x="665" y="521" type="line"/>
      <point x="665" y="-27" type="line" smooth="yes"/>
      <point x="665" y="-80"/>
      <point x="619" y="-120"/>
      <point x="572" y="-120" type="curve" smooth="yes"/>
      <point x="547" y="-120"/>
      <point x="520" y="-115"/>
      <point x="499" y="-96" type="curve"/>
      <point x="466" y="-142" type="line"/>
      <point x="496" y="-170"/>
      <point x="536" y="-181"/>
    </contour>
    <contour>
      <point x="733" y="630" type="line"/>
      <point x="733" y="730" type="line"/>
      <point x="665" y="730" type="line"/>
      <point x="665" y="630" type="line"/>
    </contour>
    <contour>
      <point x="513" y="305" type="line"/>
      <point x="513" y="442"/>
      <point x="474" y="530"/>
      <point x="358" y="530" type="curve" smooth="yes"/>
      <point x="265" y="530"/>
      <point x="179" y="479"/>
      <point x="137" y="403" type="curve"/>
      <point x="137" y="521" type="line"/>
      <point x="75" y="521" type="line"/>
      <point x="75" y="0" type="line"/>
      <point x="143" y="0" type="line"/>
      <point x="143" y="319" type="line"/>
      <point x="168" y="405"/>
      <point x="253" y="468"/>
      <point x="333" y="468" type="curve" smooth="yes"/>
      <point x="409" y="468"/>
      <point x="445" y="414"/>
      <point x="445" y="291" type="curve" smooth="yes"/>
      <point x="445" y="0" type="line"/>
      <point x="513" y="0" type="line"/>
    </contour>
  </outline>
</glyph>
<glyph name="oogonek" format="1">
  <advance width="595"/>
  <unicode hex="01EB"/>
  <outline>
    <contour>
      <point x="288" y="-181" type="curve"/>
      <point x="307" y="-143" type="line"/>
      <point x="272" y="-138"/>
      <point x="255" y="-123"/>
      <point x="255" y="-99" type="curve" smooth="yes"/>
      <point x="255" y="-70"/>
      <point x="277" y="-44"/>
      <point x="335" y="-7" type="curve"/>
      <point x="465" y="11"/>
      <point x="556" y="126"/>
      <point x="556" y="259" type="curve" smooth="yes"/>
      <point x="556" y="405"/>
      <point x="447" y="530"/>
      <point x="297" y="530" type="curve" smooth="yes"/>
      <point x="148" y="530"/>
      <point x="39" y="405"/>
      <point x="39" y="259" type="curve" smooth="yes"/>
      <point x="39" y="118"/>
      <point x="139" y="-2"/>
      <point x="283" y="-9" type="curve"/>
      <point x="234" y="-44"/>
      <point x="213" y="-76"/>
      <point x="213" y="-108" type="curve" smooth="yes"/>
      <point x="213" y="-143"/>
      <point x="239" y="-171"/>
    </contour>
    <contour>
      <point x="108" y="258" type="curve" smooth="yes"/>
      <point x="108" y="375"/>
      <point x="194" y="470"/>
      <point x="297" y="470" type="curve" smooth="yes"/>
      <point x="401" y="470"/>
      <point x="487" y="376"/>
      <point x="487" y="260" type="curve" smooth="yes"/>
      <point x="487" y="144"/>
      <point x="401" y="50"/>
      <point x="297" y="50" type="curve" smooth="yes"/>
      <point x="193" y="50"/>
      <point x="108" y="142"/>
    </contour>
  </outline>
</glyph>
<glyph name="uni01F3" format="1">
  <advance width="1113"/>
  <unicode hex="01F3"/>
  <outline>
    <contour>
      <point x="653" y="0" type="line"/>
      <point x="1078" y="0" type="line"/>
      <point x="1078" y="51" type="line"/>
      <point x="728" y="51" type="line"/>
      <point x="1079" y="475" type="line"/>
      <point x="1079" y="521" type="line"/>
      <point x="661" y="521" type="line"/>
      <point x="661" y="470" type="line"/>
      <point x="1005" y="470" type="line"/>
      <point x="653" y="46" type="line"/>
    </contour>
    <contour>
      <point x="289" y="-10" type="curve" smooth="yes"/>
      <point x="365" y="-10"/>
      <point x="442" y="33"/>
      <point x="483" y="101" type="curve"/>
      <point x="483" y="50" type="line" smooth="yes"/>
      <point x="483" y="21"/>
      <point x="511" y="-3"/>
      <point x="543" y="-3" type="curve" smooth="yes"/>
      <point x="550" y="-3"/>
      <point x="557" y="-2"/>
      <point x="567" y="0" type="curve"/>
      <point x="567" y="60" type="line"/>
      <point x="550" y="60"/>
      <point x="543" y="69"/>
      <point x="543" y="88" type="curve" smooth="yes"/>
      <point x="543" y="730" type="line"/>
      <point x="475" y="730" type="line"/>
      <point x="475" y="412" type="line"/>
      <point x="436" y="477"/>
      <point x="365" y="530"/>
      <point x="278" y="530" type="curve" smooth="yes"/>
      <point x="140" y="530"/>
      <point x="40" y="406"/>
      <point x="40" y="259" type="curve" smooth="yes"/>
      <point x="40" y="119"/>
      <point x="144" y="-10"/>
    </contour>
    <contour>
      <point x="304" y="50" type="curve" smooth="yes"/>
      <point x="195" y="50"/>
      <point x="110" y="146"/>
      <point x="110" y="259" type="curve" smooth="yes"/>
      <point x="110" y="366"/>
      <point x="183" y="470"/>
      <point x="295" y="470" type="curve" smooth="yes"/>
      <point x="367" y="470"/>
      <point x="449" y="412"/>
      <point x="475" y="340" type="curve"/>
      <point x="475" y="179" type="line"/>
      <point x="464" y="108"/>
      <point x="372" y="50"/>
    </contour>
  </outline>
</glyph>
<glyph name="aringacute" format="1">
  <advance width="545"/>
  <unicode hex="01FB"/>
  <outline>
    <contour>
      <point x="206" y="-10" type="curve" smooth="yes"/>
      <point x="289" y="-10"/>
      <point x="366" y="25"/>
      <point x="414" y="87" type="curve"/>
      <point x="416" y="46" type="line" smooth="yes"/>
      <point x="417" y="16"/>
      <point x="438" y="-3"/>
      <point x="472" y="-3" type="curve" smooth="yes"/>
      <point x="479" y="-3"/>
      <point x="487" y="-2"/>
      <point x="498" y="0" type="curve"/>
      <point x="498" y="60" type="line"/>
      <point x="481" y="60"/>
      <point x="473" y="69"/>
      <point x="473" y="88" type="curve" smooth="yes"/>
      <point x="473" y="323" type="line" smooth="yes"/>
      <point x="473" y="452"/>
      <point x="393" y="530"/>
      <point x="263" y="530" type="curve" smooth="yes"/>
      <point x="199" y="530"/>
      <point x="134" y="507"/>
      <point x="67" y="462" type="curve"/>
      <point x="91" y="417" type="line"/>
      <point x="148" y="457"/>
      <point x="205" y="479"/>
      <point x="258" y="479" type="curve" smooth="yes"/>
      <point x="349" y="479"/>
      <point x="405" y="421"/>
      <point x="405" y="329" type="curve" smooth="yes"/>
      <point x="405" y="282" type="line"/>
      <point x="362" y="299"/>
      <point x="304" y="309"/>
      <point x="251" y="309" type="curve" smooth="yes"/>
      <point x="123" y="309"/>
      <point x="33" y="244"/>
      <point x="33" y="152" type="curve" smooth="yes"/>
      <point x="33" y="61"/>
      <point x="108" y="-10"/>
    </contour>
    <contour>
      <point x="222" y="42" type="curve" smooth="yes"/>
      <point x="152" y="42"/>
      <point x="98" y="92"/>
      <point x="98" y="157" type="curve" smooth="yes"/>
      <point x="98" y="222"/>
      <point x="164" y="266"/>
      <point x="260" y="266" type="curve" smooth="yes"/>
      <point x="310" y="266"/>
      <point x="360" y="256"/>
      <point x="405" y="239" type="curve"/>
      <point x="405" y="154" type="line" smooth="yes"/>
      <point x="405" y="142"/>
      <point x="399" y="127"/>
      <point x="387" y="115" type="curve"/>
      <point x="357" y="71"/>
      <point x="292" y="42"/>
    </contour>
    <contour>
      <point x="356" y="880" type="line"/>
      <point x="284" y="880" type="line"/>
      <point x="225" y="787" type="line"/>
      <point x="270" y="770" type="line"/>
    </contour>
    <contour>
      <point x="189" y="665" type="curve" smooth="yes"/>
      <point x="189" y="625"/>
      <point x="220" y="599"/>
      <point x="263" y="599" type="curve" smooth="yes"/>
      <point x="306" y="599"/>
      <point x="337" y="625"/>
      <point x="337" y="665" type="curve" smooth="yes"/>
      <point x="337" y="704"/>
      <point x="306" y="730"/>
      <point x="263" y="730" type="curve" smooth="yes"/>
      <point x="220" y="730"/>
      <point x="189" y="704"/>
    </contour>
    <contour>
      <point x="263" y="703" type="curve" smooth="yes"/>
      <point x="286" y="703"/>
      <point x="304" y="688"/>
      <point x="304" y="665" type="curve" smooth="yes"/>
      <point x="304" y="642"/>
      <point x="284" y="626"/>
      <point x="263" y="626" type="curve" smooth="yes"/>
      <point x="240" y="626"/>
      <point x="223" y="643"/>
      <point x="223" y="665" type="curve" smooth="yes"/>
      <point x="223" y="688"/>
      <point x="241" y="703"/>
    </contour>
  </outline>
</glyph>
<glyph name="Ainvertedbreve" format="1">
  <advance width="676"/>
  <unicode hex="0202"/>
  <outline>
    <contour>
      <point x="12" y="0" type="line"/>
      <point x="87" y="0" type="line"/>
      <point x="178" y="222" type="line"/>
      <point x="497" y="222" type="line"/>
      <point x="589" y="0" type="line"/>
      <point x="663" y="0" type="line"/>
      <point x="368" y="710" type="line"/>
      <point x="309" y="710" type="line"/>
    </contour>
    <contour>
      <point x="193" y="277" type="line"/>
      <point x="338" y="628" type="line"/>
      <point x="481" y="277" type="line"/>
    </contour>
    <contour>
      <point x="338" y="882" type="curve" smooth="yes"/>
      <point x="366" y="882"/>
      <point x="391" y="853"/>
      <point x="395" y="816" type="curve"/>
      <point x="436" y="816" type="line"/>
      <point x="436" y="873"/>
      <point x="392" y="917"/>
      <point x="338" y="917" type="curve" smooth="yes"/>
      <point x="283" y="917"/>
      <point x="240" y="873"/>
      <point x="240" y="816" type="curve"/>
      <point x="282" y="816" type="line"/>
      <point x="282" y="850"/>
      <point x="309" y="882"/>
    </contour>
  </outline>
</glyph>
<glyph name="ainvertedbreve" format="1">
  <advance width="545"/>
  <unicode hex="0203"/>
  <outline>
    <contour>
      <point x="206" y="-10" type="curve" smooth="yes"/>
      <point x="289" y="-10"/>
      <point x="366" y="25"/>
      <point x="414" y="87" type="curve"/>
      <point x="416" y="46" type="line" smooth="yes"/>
      <point x="417" y="16"/>
      <point x="438" y="-3"/>
      <point x="472" y="-3" type="curve" smooth="yes"/>
      <point x="479" y="-3"/>
      <point x="487" y="-2"/>
      <point x="498" y="0" type="curve"/>
      <point x="498" y="60" type="line"/>
      <point x="481" y="60"/>
      <point x="473" y="69"/>
      <point x="473" y="88" type="curve" smooth="yes"/>
      <point x="473" y="323" type="line" smooth="yes"/>
      <point x="473" y="452"/>
      <point x="393" y="530"/>
      <point x="263" y="530" type="curve" smooth="yes"/>
      <point x="199" y="530"/>
      <point x="134" y="507"/>
      <point x="67" y="462" type="curve"/>
      <point x="91" y="417" type="line"/>
      <point x="148" y="457"/>
      <point x="205" y="479"/>
      <point x="258" y="479" type="curve" smooth="yes"/>
      <point x="349" y="479"/>
      <point x="405" y="421"/>
      <point x="405" y="329" type="curve" smooth="yes"/>
      <point x="405" y="282" type="line"/>
      <point x="362" y="299"/>
      <point x="304" y="309"/>
      <point x="251" y="309" type="curve" smooth="yes"/>
      <point x="123" y="309"/>
      <point x="33" y="244"/>
      <point x="33" y="152" type="curve" smooth="yes"/>
      <point x="33" y="61"/>
      <point x="108" y="-10"/>
    </contour>
    <contour>
      <point x="222" y="42" type="curve" smooth="yes"/>
      <point x="152" y="42"/>
      <point x="98" y="92"/>
      <point x="98" y="157" type="curve" smooth="yes"/>
      <point x="98" y="222"/>
      <point x="164" y="266"/>
      <point x="260" y="266" type="curve" smooth="yes"/>
      <point x="310" y="266"/>
      <point x="360" y="256"/>
      <point x="405" y="239" type="curve"/>
      <point x="405" y="154" type="line" smooth="yes"/>
      <point x="405" y="142"/>
      <point x="399" y="127"/>
      <point x="387" y="115" type="curve"/>
      <point x="357" y="71"/>
      <point x="292" y="42"/>
    </contour>
    <contour>
      <point x="268" y="695" type="curve" smooth="yes"/>
      <point x="296" y="695"/>
      <point x="321" y="666"/>
      <point x="325" y="629" type="curve"/>
      <point x="366" y="629" type="line"/>
      <point x="366" y="686"/>
      <point x="322" y="730"/>
      <point x="268" y="730" type="curve" smooth="yes"/>
      <point x="213" y="730"/>
      <point x="170" y="686"/>
      <point x="170" y="629" type="curve"/>
      <point x="212" y="629" type="line"/>
      <point x="212" y="663"/>
      <point x="239" y="695"/>
    </contour>
  </outline>
</glyph>
<glyph name="Edblgrave" format="1">
  <advance width="609"/>
  <unicode hex="0204"/>
  <outline>
    <contour>
      <point x="389" y="808" type="line"/>
      <point x="426" y="825" type="line"/>
      <point x="369" y="918" type="line"/>
      <point x="306" y="918" type="line"/>
    </contour>
    <contour>
      <point x="264" y="808" type="line"/>
      <point x="301" y="825" type="line"/>
      <point x="244" y="918" type="line"/>
      <point x="180" y="918" type="line"/>
    </contour>
    <contour>
      <point x="159" y="62" type="line"/>
      <point x="159" y="333" type="line"/>
      <point x="506" y="333" type="line"/>
      <point x="506" y="392" type="line"/>
      <point x="159" y="392" type="line"/>
      <point x="159" y="648" type="line"/>
      <point x="557" y="648" type="line"/>
      <point x="557" y="710" type="line"/>
      <point x="89" y="710" type="line"/>
      <point x="89" y="0" type="line"/>
      <point x="566" y="0" type="line"/>
      <point x="566" y="62" type="line"/>
    </contour>
  </outline>
</glyph>
<glyph name="Oinvertedbreve" format="1">
  <advance width="751"/>
  <unicode hex="020E"/>
  <outline>
    <contour>
      <point x="375" y="882" type="curve" smooth="yes"/>
      <point x="403" y="882"/>
      <point x="428" y="853"/>
      <point x="432" y="816" type="curve"/>
      <point x="473" y="816" type="line"/>
      <point x="473" y="873"/>
      <point x="429" y="917"/>
      <point x="375" y="917" type="curve" smooth="yes"/>
      <point x="320" y="917"/>
      <point x="277" y="873"/>
      <point x="277" y="816" type="curve"/>
      <point x="319" y="816" type="line"/>
      <point x="319" y="850"/>
      <point x="346" y="882"/>
    </contour>
    <contour>
      <point x="375" y="-5" type="curve" smooth="yes"/>
      <point x="565" y="-5"/>
      <point x="708" y="165"/>
      <point x="708" y="354" type="curve" smooth="yes"/>
      <point x="708" y="532"/>
      <point x="574" y="715"/>
      <point x="376" y="715" type="curve" smooth="yes"/>
      <point x="186" y="715"/>
      <point x="42" y="544"/>
      <point x="42" y="355" type="curve" smooth="yes"/>
      <point x="42" y="173"/>
      <point x="177" y="-5"/>
    </contour>
    <contour>
      <point x="112" y="355" type="curve" smooth="yes"/>
      <point x="112" y="502"/>
      <point x="214" y="651"/>
      <point x="375" y="651" type="curve" smooth="yes"/>
      <point x="529" y="651"/>
      <point x="638" y="509"/>
      <point x="638" y="355" type="curve" smooth="yes"/>
      <point x="638" y="209"/>
      <point x="536" y="58"/>
      <point x="375" y="58" type="curve" smooth="yes"/>
      <point x="219" y="58"/>
      <point x="112" y="201"/>
    </contour>
  </outline>
</glyph>
<glyph name="rdblgrave" format="1">
  <advance width="351"/>
  <unicode hex="0211"/>
  <outline>
    <contour>
      <point x="265" y="620" type="line"/>
      <point x="302" y="637" type="line"/>
      <point x="245" y="730" type="line"/>
      <point x="182" y="730" type="line"/>
    </contour>
    <contour>
      <point x="140" y="620" type="line"/>
      <point x="177" y="637" type="line"/>
      <point x="120" y="730" type="line"/>
      <point x="56" y="730" type="line"/>
    </contour>
    <contour>
      <point x="335" y="523" type="line"/>
      <point x="330" y="524"/>
      <point x="327" y="524"/>
      <point x="322" y="524" type="curve" smooth="yes"/>
      <point x="248" y="524"/>
      <point x="178" y="476"/>
      <point x="139" y="396" type="curve"/>
      <point x="139" y="521" type="line"/>
      <point x="75" y="521" type="line"/>
      <point x="75" y="0" type="line"/>
      <point x="143" y="0" type="line"/>
      <point x="143" y="324" type="line"/>
      <point x="171" y="408"/>
      <point x="244" y="458"/>
      <point x="335" y="461" type="curve"/>
    </contour>
  </outline>
</glyph>
<glyph name="Rinvertedbreve" format="1">
  <advance width="653"/>
  <unicode hex="0212"/>
  <outline>
    <contour>
      <point x="322" y="882" type="curve" smooth="yes"/>
      <point x="350" y="882"/>
      <point x="375" y="853"/>
      <point x="379" y="816" type="curve"/>
      <point x="420" y="816" type="line"/>
      <point x="420" y="873"/>
      <point x="376" y="917"/>
      <point x="322" y="917" type="curve" smooth="yes"/>
      <point x="267" y="917"/>
      <point x="224" y="873"/>
      <point x="224" y="816" type="curve"/>
      <point x="266" y="816" type="line"/>
      <point x="266" y="850"/>
      <point x="293" y="882"/>
    </contour>
    <contour>
      <point x="159" y="0" type="line"/>
      <point x="159" y="262" type="line"/>
      <point x="369" y="262" type="line"/>
      <point x="536" y="0" type="line"/>
      <point x="615" y="0" type="line"/>
      <point x="441" y="274" type="line"/>
      <point x="536" y="293"/>
      <point x="599" y="384"/>
      <point x="599" y="487" type="curve" smooth="yes"/>
      <point x="599" y="597"/>
      <point x="511" y="710"/>
      <point x="389" y="710" type="curve" smooth="yes"/>
      <point x="89" y="710" type="line"/>
      <point x="89" y="0" type="line"/>
    </contour>
    <contour>
      <point x="159" y="648" type="line"/>
      <point x="385" y="648" type="line" smooth="yes"/>
      <point x="463" y="648"/>
      <point x="529" y="573"/>
      <point x="529" y="487" type="curve" smooth="yes"/>
      <point x="529" y="403"/>
      <point x="475" y="324"/>
      <point x="391" y="324" type="curve" smooth="yes"/>
      <point x="159" y="324" type="line"/>
    </contour>
  </outline>
</glyph>
<glyph name="udblgrave" format="1">
  <advance width="594"/>
  <unicode hex="0215"/>
  <outline>
    <contour>
      <point x="348" y="620" type="line"/>
      <point x="385" y="637" type="line"/>
      <point x="328" y="730" type="line"/>
      <point x="265" y="730" type="line"/>
    </contour>
    <contour>
      <point x="223" y="620" type="line"/>
      <point x="260" y="637" type="line"/>
      <point x="203" y="730" type="line"/>
      <point x="139" y="730" type="line"/>
    </contour>
    <contour>
      <point x="238" y="-10" type="curve" smooth="yes"/>
      <point x="326" y="-10"/>
      <point x="410" y="37"/>
      <point x="455" y="118" type="curve"/>
      <point x="455" y="58" type="line" smooth="yes"/>
      <point x="455" y="22"/>
      <point x="477" y="-1"/>
      <point x="509" y="-2" type="curve" smooth="yes"/>
      <point x="513" y="-2"/>
      <point x="523" y="-2"/>
      <point x="539" y="0" type="curve"/>
      <point x="539" y="60" type="line"/>
      <point x="522" y="60"/>
      <point x="515" y="69"/>
      <point x="515" y="88" type="curve" smooth="yes"/>
      <point x="515" y="521" type="line"/>
      <point x="447" y="521" type="line"/>
      <point x="447" y="193" type="line"/>
      <point x="416" y="106"/>
      <point x="339" y="50"/>
      <point x="259" y="50" type="curve" smooth="yes"/>
      <point x="178" y="50"/>
      <point x="138" y="108"/>
      <point x="138" y="227" type="curve" smooth="yes"/>
      <point x="138" y="521" type="line"/>
      <point x="70" y="521" type="line"/>
      <point x="70" y="215" type="line" smooth="yes"/>
      <point x="70" y="67"/>
      <point x="126" y="-10"/>
    </contour>
  </outline>
</glyph>
<glyph name="breve" format="1">
  <advance width="282"/>
  <unicode hex="02D8"/>
  <outline>
    <contour>
      <point x="141" y="521" type="move" name="_top"/>
    </contour>
    <contour>
      <point x="141" y="664" type="curve" smooth="yes"/>
      <point x="112" y="664"/>
      <point x="85" y="696"/>
      <point x="85" y="730" type="curve"/>
      <point x="43" y="730" type="line"/>
      <point x="43" y="673"/>
      <point x="86" y="629"/>
      <point x="141" y="629" type="curve" smooth="yes"/>
      <point x="195" y="629"/>
      <point x="239" y="673"/>
      <point x="239" y="730" type="curve"/>
      <point x="198" y="730" type="line"/>
      <point x="194" y="693"/>
      <point x="169" y="664"/>
    </contour>
  </outline>
</glyph>
<glyph name="ring" format="1">
  <advance width="248"/>
  <unicode hex="02DA"/>
  <outline>
    <contour>
      <point x="124" y="521" type="move" name="_top"/>
    </contour>
    <contour>
      <point x="50" y="665" type="curve" smooth="yes"/>
      <point x="50" y="625"/>
      <point x="81" y="599"/>
      <point x="124" y="599" type="curve" smooth="yes"/>
      <point x="167" y="599"/>
      <point x="198" y="625"/>
      <point x="198" y="665" type="curve" smooth="yes"/>
      <point x="198" y="704"/>
      <point x="167" y="730"/>
      <point x="124" y="730" type="curve" smooth="yes"/>
      <point x="81" y="730"/>
      <point x="50" y="704"/>
    </contour>
    <contour>
      <point x="124" y="703" type="curve" smooth="yes"/>
      <point x="147" y="703"/>
      <point x="165" y="688"/>
      <point x="165" y="665" type="curve" smooth="yes"/>
      <point x="165" y="642"/>
      <point x="145" y="626"/>
      <point x="124" y="626" type="curve" smooth="yes"/>
      <point x="101" y="626"/>
      <point x="84" y="643"/>
      <point x="84" y="665" type="curve" smooth="yes"/>
      <point x="84" y="688"/>
      <point x="102" y="703"/>
    </contour>
  </outline>
</glyph>
<glyph name="uni0404" format="1">
  <advance width="700"/>
  <unicode hex="0404"/>
  <outline>
    <contour>
      <point x="612" y="189" type="line"/>
      <point x="565" y="97"/>
      <point x="468" y="57"/>
      <point x="386" y="57" type="curve" smooth="yes"/>
      <point x="231" y="57"/>
      <point x="123" y="185"/>
      <point x="113" y="333" type="curve"/>
      <point x="477" y="333" type="line"/>
      <point x="477" y="392" type="line"/>
      <point x="115" y="392" type="line"/>
      <point x="127" y="523"/>
      <point x="216" y="651"/>
      <point x="383" y="651" type="curve" smooth="yes"/>
      <point x="463" y="651"/>
      <point x="553" y="619"/>
      <point x="600" y="525" type="curve"/>
      <point x="656" y="559" type="line"/>
      <point x="611" y="650"/>
      <point x="523" y="714"/>
      <point x="387" y="714" type="curve" smooth="yes"/>
      <point x="162" y="714"/>
      <point x="42" y="531"/>
      <point x="42" y="360" type="curve" smooth="yes"/>
      <point x="42" y="180"/>
      <point x="176" y="-6"/>
      <point x="382" y="-6" type="curve" smooth="yes"/>
      <point x="508" y="-6"/>
      <point x="623" y="53"/>
      <point x="670" y="159" type="curve"/>
    </contour>
  </outline>
</glyph>
<glyph name="uni040B" format="1">
  <advance width="708"/>
  <unicode hex="040B"/>
  <outline>
    <contour>
      <point x="599" y="0" type="line"/>
      <point x="667" y="0" type="line"/>
      <point x="667" y="236" type="line" smooth="yes"/>
      <point x="667" y="377"/>
      <point x="593" y="442"/>
      <point x="463" y="442" type="curve" smooth="yes"/>
      <point x="391" y="442"/>
      <point x="323" y="420"/>
      <point x="273" y="385" type="curve"/>
      <point x="273" y="648" type="line"/>
      <point x="549" y="648" type="line"/>
      <point x="549" y="710" type="line"/>
      <point x="17" y="710" type="line"/>
      <point x="17" y="648" type="line"/>
      <point x="204" y="648" type="line"/>
      <point x="204" y="0" type="line"/>
      <point x="273" y="0" type="line"/>
      <point x="273" y="317" type="line"/>
      <point x="322" y="356"/>
      <point x="388" y="380"/>
      <point x="458" y="380" type="curve" smooth="yes"/>
      <point x="558" y="380"/>
      <point x="599" y="335"/>
      <point x="599" y="222" type="curve" smooth="yes"/>
    </contour>
  </outline>
</glyph>
<glyph name="uni040C" format="1">
  <advance width="604"/>
  <unicode hex="040C"/>
  <outline>
    <contour>
      <point x="414" y="917" type="line"/>
      <point x="342" y="917" type="line"/>
      <point x="283" y="824" type="line"/>
      <point x="328" y="807" type="line"/>
    </contour>
    <contour>
      <point x="160" y="710" type="line"/>
      <point x="91" y="710" type="line"/>
      <point x="91" y="0" type="line"/>
      <point x="160" y="0" type="line"/>
      <point x="160" y="333" type="line"/>
      <point x="274" y="333" type="line"/>
      <point x="526" y="0" type="line"/>
      <point x="606" y="0" type="line"/>
      <point x="331" y="368" type="line"/>
      <point x="580" y="710" type="line"/>
      <point x="500" y="710" type="line"/>
      <point x="268" y="395" type="line"/>
      <point x="160" y="395" type="line"/>
    </contour>
  </outline>
</glyph>
<glyph name="uni0411" format="1">
  <advance width="653"/>
  <unicode hex="0411"/>
  <outline>
    <contour>
      <point x="91" y="0" type="line"/>
      <point x="406" y="0" type="line" smooth="yes"/>
      <point x="531" y="0"/>
      <point x="617" y="78"/>
      <point x="617" y="206" type="curve" smooth="yes"/>
      <point x="617" y="335"/>
      <point x="531" y="409"/>
      <point x="405" y="409" type="curve" smooth="yes"/>
      <point x="160" y="409" type="line"/>
      <point x="160" y="648" type="line"/>
      <point x="575" y="648" type="line"/>
      <point x="575" y="710" type="line"/>
      <point x="91" y="710" type="line"/>
    </contour>
    <contour>
      <point x="160" y="61" type="line"/>
      <point x="160" y="348" type="line"/>
      <point x="405" y="348" type="line" smooth="yes"/>
      <point x="506" y="348"/>
      <point x="547" y="288"/>
      <point x="547" y="206" type="curve" smooth="yes"/>
      <point x="547" y="123"/>
      <point x="502" y="61"/>
      <point x="406" y="61" type="curve" smooth="yes"/>
    </contour>
  </outline>
</glyph>
<glyph name="uni0420" format="1">
  <advance width="623"/>
  <unicode hex="0420"/>
  <outline>
    <contour>
      <point x="160" y="0" type="line"/>
      <point x="160" y="262" type="line"/>
      <point x="390" y="262" type="line" smooth="yes"/>
      <point x="512" y="262"/>
      <point x="595" y="371"/>
      <point x="595" y="487" type="curve" smooth="yes"/>
      <point x="595" y="597"/>
      <point x="506" y="710"/>
      <point x="384" y="710" type="curve" smooth="yes"/>
      <point x="90" y="710" type="line"/>
      <point x="90" y="0" type="line"/>
    </contour>
    <contour>
      <point x="160" y="648" type="line"/>
      <point x="381" y="648" type="line" smooth="yes"/>
      <point x="459" y="648"/>
      <point x="525" y="576"/>
      <point x="525" y="487" type="curve" smooth="yes"/>
      <point x="525" y="401"/>
      <point x="471" y="324"/>
      <point x="387" y="324" type="curve" smooth="yes"/>
      <point x="160" y="324" type="line"/>
    </contour>
  </outline>
</glyph>
<glyph name="uni0422" format="1">
  <advance width="609"/>
  <unicode hex="0422"/>
  <outline>
    <contour>
      <point x="593" y="710" type="line"/>
      <point x="17" y="710" type="line"/>
      <point x="17" y="648" type="line"/>
      <point x="270" y="648" type="line"/>
      <point x="270" y="0" type="line"/>
      <point x="340" y="0" type="line"/>
      <point x="340" y="648" type="line"/>
      <point x="593" y="648" type="line"/>
    </contour>
  </outline>
</glyph>
<glyph name="uni042E" format="1">
  <advance width="978"/>
  <unicode hex="042E"/>
  <outline>
    <contour>
      <point x="610" y="-5" type="curve" smooth="yes"/>
      <point x="795" y="-5"/>
      <point x="934" y="135"/>
      <point x="934" y="354" type="curve" smooth="yes"/>
      <point x="934" y="562"/>
      <point x="804" y="715"/>
      <point x="612" y="715" type="curve" smooth="yes"/>
      <point x="442" y="715"/>
      <point x="311" y="588"/>
      <point x="298" y="388" type="curve"/>
      <point x="161" y="388" type="line"/>
      <point x="161" y="710" type="line"/>
      <point x="91" y="710" type="line"/>
      <point x="91" y="0" type="line"/>
      <point x="161" y="0" type="line"/>
      <point x="161" y="326" type="line"/>
      <point x="298" y="326" type="line"/>
      <point x="309" y="129"/>
      <point x="432" y="-5"/>
    </contour>
    <contour>
      <point x="367" y="355" type="curve" smooth="yes"/>
      <point x="367" y="532"/>
      <point x="462" y="651"/>
      <point x="611" y="651" type="curve" smooth="yes"/>
      <point x="759" y="651"/>
      <point x="864" y="539"/>
      <point x="864" y="355" type="curve" smooth="yes"/>
      <point x="864" y="179"/>
      <point x="766" y="58"/>
      <point x="611" y="58" type="curve" smooth="yes"/>
      <point x="466" y="58"/>
      <point x="367" y="171"/>
    </contour>
  </outline>
</glyph>
<glyph name="uni0432" format="1">
  <advance width="523"/>
  <unicode hex="0432"/>
  <outline>
    <contour>
      <point x="78" y="521" type="line"/>
      <point x="78" y="0" type="line"/>
      <point x="329" y="0" type="line" smooth="yes"/>
      <point x="417" y="0"/>
      <point x="482" y="59"/>
      <point x="482" y="143" type="curve" smooth="yes"/>
      <point x="482" y="207"/>
      <point x="446" y="255"/>
      <point x="388" y="271" type="curve"/>
      <point x="439" y="293"/>
      <point x="462" y="346"/>
      <point x="462" y="393" type="curve" smooth="yes"/>
      <point x="462" y="464"/>
      <point x="408" y="521"/>
      <point x="333" y="521" type="curve" smooth="yes"/>
    </contour>
    <contour>
      <point x="144" y="291" type="line"/>
      <point x="144" y="470" type="line"/>
      <point x="313" y="470" type="line" smooth="yes"/>
      <point x="368" y="470"/>
      <point x="395" y="430"/>
      <point x="395" y="383" type="curve" smooth="yes"/>
      <point x="395" y="330"/>
      <point x="360" y="291"/>
      <point x="306" y="291" type="curve" smooth="yes"/>
    </contour>
    <contour>
      <point x="144" y="51" type="line"/>
      <point x="144" y="239" type="line"/>
      <point x="324" y="239" type="line" smooth="yes"/>
      <point x="381" y="239"/>
      <point x="416" y="195"/>
      <point x="416" y="147" type="curve" smooth="yes"/>
      <point x="416" y="97"/>
      <point x="378" y="51"/>
      <point x="322" y="51" type="curve" smooth="yes"/>
    </contour>
  </outline>
</glyph>
<glyph name="uni0433" format="1">
  <advance width="415"/>
  <unicode hex="0433"/>
  <outline>
    <contour>
      <point x="394" y="521" type="line"/>
      <point x="76" y="521" type="line"/>
      <point x="76" y="0" type="line"/>
      <point x="143" y="0" type="line"/>
      <point x="143" y="469" type="line"/>
      <point x="394" y="469" type="line"/>
    </contour>
  </outline>
</glyph>
<glyph name="uni0444" format="1">
  <advance width="678"/>
  <unicode hex="0444"/>
  <outline>
    <contour>
      <point x="374" y="730" type="line"/>
      <point x="306" y="730" type="line"/>
      <point x="306" y="528" type="line"/>
      <point x="140" y="515"/>
      <point x="39" y="408"/>
      <point x="39" y="258" type="curve" smooth="yes"/>
      <point x="39" y="106"/>
      <point x="142" y="3"/>
      <point x="306" y="-9" type="curve"/>
      <point x="306" y="-213" type="line"/>
      <point x="374" y="-213" type="line"/>
      <point x="374" y="-8" type="line"/>
      <point x="536" y="5"/>
      <point x="639" y="106"/>
      <point x="639" y="258" type="curve" smooth="yes"/>
      <point x="639" y="407"/>
      <point x="538" y="514"/>
      <point x="374" y="527" type="curve"/>
    </contour>
    <contour>
      <point x="306" y="54" type="line"/>
      <point x="184" y="65"/>
      <point x="109" y="139"/>
      <point x="109" y="261" type="curve" smooth="yes"/>
      <point x="109" y="381"/>
      <point x="182" y="453"/>
      <point x="306" y="463" type="curve"/>
    </contour>
    <contour>
      <point x="374" y="463" type="line"/>
      <point x="497" y="453"/>
      <point x="569" y="379"/>
      <point x="569" y="261" type="curve" smooth="yes"/>
      <point x="569" y="139"/>
      <point x="495" y="66"/>
      <point x="374" y="54" type="curve"/>
    </contour>
  </outline>
</glyph>
<glyph name="uni0445" format="1">
  <advance width="504"/>
  <unicode hex="0445"/>
  <outline>
    <contour>
      <point x="15" y="521" type="line"/>
      <point x="214" y="259" type="line"/>
      <point x="15" y="0" type="line"/>
      <point x="88" y="0" type="line"/>
      <point x="244" y="203" type="line"/>
      <point x="252" y="217" type="line"/>
      <point x="260" y="203" type="line"/>
      <point x="416" y="0" type="line"/>
      <point x="489" y="0" type="line"/>
      <point x="290" y="259" type="line"/>
      <point x="489" y="521" type="line"/>
      <point x="416" y="521" type="line"/>
      <point x="260" y="317" type="line"/>
      <point x="252" y="302" type="line"/>
      <point x="244" y="317" type="line"/>
      <point x="88" y="521" type="line"/>
    </contour>
  </outline>
</glyph>
<glyph name="uni0447" format="1">
  <advance width="480"/>
  <unicode hex="0447"/>
  <outline>
    <contour>
      <point x="404" y="521" type="line"/>
      <point x="336" y="521" type="line"/>
      <point x="336" y="286" type="line"/>
      <point x="316" y="270"/>
      <point x="277" y="257"/>
      <point x="221" y="257" type="curve" smooth="yes"/>
      <point x="149" y="257"/>
      <point x="109" y="293"/>
      <point x="109" y="392" type="curve" smooth="yes"/>
      <point x="109" y="521" type="line"/>
      <point x="42" y="521" type="line"/>
      <point x="42" y="380" type="line" smooth="yes"/>
      <point x="42" y="276"/>
      <point x="85" y="198"/>
      <point x="209" y="198" type="curve" smooth="yes"/>
      <point x="270" y="198"/>
      <point x="302" y="204"/>
      <point x="336" y="217" type="curve"/>
      <point x="336" y="0" type="line"/>
      <point x="404" y="0" type="line"/>
    </contour>
  </outline>
</glyph>
<glyph name="uni045C" format="1">
  <advance width="484"/>
  <unicode hex="045C"/>
  <outline>
    <contour>
      <point x="338" y="730" type="line"/>
      <point x="266" y="730" type="line"/>
      <point x="207" y="637" type="line"/>
      <point x="252" y="620" type="line"/>
    </contour>
    <contour>
      <point x="211" y="291" type="line"/>
      <point x="143" y="291" type="line"/>
      <point x="143" y="521" type="line"/>
      <point x="76" y="521" type="line"/>
      <point x="76" y="0" type="line"/>
      <point x="143" y="0" type="line"/>
      <point x="143" y="238" type="line"/>
      <point x="217" y="238" type="line"/>
      <point x="401" y="0" type="line"/>
      <point x="477" y="0" type="line"/>
      <point x="263" y="269" type="line"/>
      <point x="460" y="521" type="line"/>
      <point x="384" y="521" type="line"/>
    </contour>
  </outline>
</glyph>
<glyph name="Wacute" format="1">
  <advance width="1046"/>
  <unicode hex="1E82"/>
  <outline>
    <contour>
      <point x="614" y="917" type="line"/>
      <point x="542" y="917" type="line"/>
      <point x="483" y="824" type="line"/>
      <point x="528" y="807" type="line"/>
    </contour>
    <contour>
      <point x="480" y="402" type="line"/>
      <point x="345" y="81" type="line"/>
      <point x="87" y="710" type="line"/>
      <point x="12" y="710" type="line"/>
      <point x="312" y="0" type="line"/>
      <point x="373" y="0" type="line"/>
      <point x="523" y="351" type="line"/>
      <point x="672" y="0" type="line"/>
      <point x="734" y="0" type="line"/>
      <point x="1035" y="710" type="line"/>
      <point x="959" y="710" type="line"/>
      <point x="702" y="81" type="line"/>
      <point x="566" y="402" type="line"/>
      <point x="690" y="705" type="line"/>
      <point x="623" y="705" type="line"/>
      <point x="522" y="453" type="line"/>
      <point x="422" y="705" type="line"/>
      <point x="356" y="705" type="line"/>
    </contour>
  </outline>
</glyph>
<glyph name="wdieresis" format="1">
  <advance width="813"/>
  <unicode hex="1E85"/>
  <outline>
    <contour>
      <point x="361" y="633" type="line"/>
      <point x="361" y="727" type="line"/>
      <point x="303" y="727" type="line"/>
      <point x="303" y="633" type="line"/>
    </contour>
    <contour>
      <point x="510" y="633" type="line"/>
      <point x="510" y="727" type="line"/>
      <point x="452" y="727" type="line"/>
      <point x="452" y="633" type="line"/>
    </contour>
    <contour>
      <point x="542" y="70" type="line"/>
      <point x="443" y="308" type="line"/>
      <point x="532" y="520" type="line"/>
      <point x="474" y="520" type="line"/>
      <point x="406" y="350" type="line"/>
      <point x="338" y="520" type="line"/>
      <point x="281" y="520" type="line"/>
      <point x="370" y="308" type="line"/>
      <point x="271" y="70" type="line"/>
      <point x="81" y="521" type="line"/>
      <point x="15" y="521" type="line"/>
      <point x="239" y="0" type="line"/>
      <point x="295" y="0" type="line"/>
      <point x="406" y="266" type="line"/>
      <point x="518" y="0" type="line"/>
      <point x="574" y="0" type="line"/>
      <point x="798" y="521" type="line"/>
      <point x="731" y="521" type="line"/>
    </contour>
  </outline>
</glyph>
<glyph name="Zdotbelow" format="1">
  <advance width="629"/>
  <unicode hex="1E92"/>
  <outline>
    <contour>
      <point x="31" y="0" type="line"/>
      <point x="594" y="0" type="line"/>
      <point x="594" y="62" type="line"/>
      <point x="118" y="62" type="line"/>
      <point x="595" y="655" type="line"/>
      <point x="595" y="710" type="line"/>
      <point x="39" y="710" type="line"/>
      <point x="39" y="648" type="line"/>
      <point x="514" y="648" type="line"/>
      <point x="31" y="55" type="line"/>
    </contour>
    <contour>
      <point x="354" y="-166" type="line"/>
      <point x="354" y="-68" type="line"/>
      <point x="292" y="-68" type="line"/>
      <point x="292" y="-166" type="line"/>
    </contour>
  </outline>
</glyph>
<glyph name="ygrave" format="1">
  <advance width="542"/>
  <unicode hex="1EF3"/>
  <outline>
    <contour>
      <point x="105" y="-220" type="line"/>
      <point x="122" y="-223"/>
      <point x="133" y="-223"/>
      <point x="146" y="-223" type="curve" smooth="yes"/>
      <point x="204" y="-223"/>
      <point x="237" y="-190"/>
      <point x="252" y="-151" type="curve" smooth="yes"/>
      <point x="522" y="521" type="line"/>
      <point x="457" y="521" type="line"/>
      <point x="278" y="63" type="line"/>
      <point x="85" y="521" type="line"/>
      <point x="15" y="521" type="line"/>
      <point x="242" y="0" type="line"/>
      <point x="182" y="-144"/>
      <point x="182" y="-162"/>
      <point x="135" y="-162" type="curve" smooth="yes"/>
      <point x="126" y="-162"/>
      <point x="115" y="-161"/>
      <point x="105" y="-160" type="curve"/>
    </contour>
    <contour>
      <point x="272" y="620" type="line"/>
      <point x="316" y="637" type="line"/>
      <point x="256" y="730" type="line"/>
      <point x="185" y="730" type="line"/>
    </contour>
  </outline>
</glyph>
<glyph name="ytilde" format="1">
  <advance width="542"/>
  <unicode hex="1EF9"/>
  <outline>
    <contour>
      <point x="105" y="-220" type="line"/>
      <point x="122" y="-223"/>
      <point x="133" y="-223"/>
      <point x="146" y="-223" type="curve" smooth="yes"/>
      <point x="204" y="-223"/>
      <point x="237" y="-190"/>
      <point x="252" y="-151" type="curve" smooth="yes"/>
      <point x="522" y="521" type="line"/>
      <point x="457" y="521" type="line"/>
      <point x="278" y="63" type="line"/>
      <point x="85" y="521" type="line"/>
      <point x="15" y="521" type="line"/>
      <point x="242" y="0" type="line"/>
      <point x="182" y="-144"/>
      <point x="182" y="-162"/>
      <point x="135" y="-162" type="curve" smooth="yes"/>
      <point x="126" y="-162"/>
      <point x="115" y="-161"/>
      <point x="105" y="-160" type="curve"/>
    </contour>
    <contour>
      <point x="340" y="638" type="curve" smooth="yes"/>
      <point x="421" y="638"/>
      <point x="438" y="717"/>
      <point x="438" y="730" type="curve"/>
      <point x="396" y="730" type="line"/>
      <point x="396" y="726"/>
      <point x="391" y="681"/>
      <point x="339" y="681" type="curve" smooth="yes"/>
      <point x="289" y="681"/>
      <point x="267" y="723"/>
      <point x="211" y="723" type="curve" smooth="yes"/>
      <point x="136" y="723"/>
      <point x="120" y="644"/>
      <point x="120" y="630" type="curve"/>
      <point x="162" y="630" type="line"/>
      <point x="162" y="635"/>
      <point x="168" y="678"/>
      <point x="212" y="678" type="curve" smooth="yes"/>
      <point x="254" y="678"/>
      <point x="280" y="638"/>
    </contour>
  </outline>
</glyph>
<glyph name="emdash" format="1">
  <advance width="901"/>
  <unicode hex="2014"/>
  <outline>
    <contour>
      <point x="836" y="241" type="line"/>
      <point x="836" y="304" type="line"/>
      <point x="65" y="304" type="line"/>
      <point x="65" y="241" type="line"/>
    </contour>
  </outline>
</glyph>
<glyph name="dagger" format="1">
  <advance width="406"/>
  <unicode hex="2020"/>
  <outline>
    <contour>
      <point x="236" y="-130" type="line"/>
      <point x="236" y="240" type="line"/>
      <point x="367" y="240" type="line"/>
      <point x="367" y="302" type="line"/>
      <point x="236" y="302" type="line"/>
      <point x="236" y="775" type="line"/>
      <point x="171" y="775" type="line"/>
      <point x="171" y="302" type="line"/>
      <point x="39" y="302" type="line"/>
      <point x="39" y="240" type="line"/>
      <point x="171" y="240" type="line"/>
      <point x="171" y="-130" type="line"/>
    </contour>
  </outline>
</glyph>
<glyph name="afii61352" format="1">
  <advance width="1140"/>
  <unicode hex="2116"/>
  <outline>
    <contour>
      <point x="622" y="0" type="line"/>
      <point x="683" y="0" type="line"/>
      <point x="683" y="709" type="line"/>
      <point x="613" y="709" type="line"/>
      <point x="613" y="119" type="line"/>
      <point x="143" y="710" type="line"/>
      <point x="89" y="710" type="line"/>
      <point x="89" y="0" type="line"/>
      <point x="159" y="0" type="line"/>
      <point x="159" y="580" type="line"/>
    </contour>
    <contour>
      <point x="941" y="348" type="curve" smooth="yes"/>
      <point x="1048" y="348"/>
      <point x="1122" y="433"/>
      <point x="1122" y="530" type="curve" smooth="yes"/>
      <point x="1122" y="629"/>
      <point x="1047" y="712"/>
      <point x="941" y="712" type="curve" smooth="yes"/>
      <point x="835" y="712"/>
      <point x="761" y="629"/>
      <point x="761" y="530" type="curve" smooth="yes"/>
      <point x="761" y="433"/>
      <point x="834" y="348"/>
    </contour>
    <contour>
      <point x="818" y="529" type="curve" smooth="yes"/>
      <point x="818" y="604"/>
      <point x="874" y="663"/>
      <point x="941" y="663" type="curve" smooth="yes"/>
      <point x="1009" y="663"/>
      <point x="1064" y="605"/>
      <point x="1064" y="531" type="curve" smooth="yes"/>
      <point x="1064" y="456"/>
      <point x="1009" y="397"/>
      <point x="941" y="397" type="curve" smooth="yes"/>
      <point x="873" y="397"/>
      <point x="818" y="455"/>
    </contour>
  </outline>
</glyph>
<glyph name="Omega" format="1">
  <advance width="763"/>
  <unicode hex="2126"/>
  <outline>
    <contour>
      <point x="45" y="0" type="line"/>
      <point x="334" y="0" type="line"/>
      <point x="334" y="62" type="line"/>
      <point x="203" y="99"/>
      <point x="124" y="238"/>
      <point x="124" y="365" type="curve" smooth="yes"/>
      <point x="124" y="507"/>
      <point x="223" y="651"/>
      <point x="381" y="651" type="curve" smooth="yes"/>
      <point x="540" y="651"/>
      <point x="639" y="507"/>
      <point x="639" y="365" type="curve" smooth="yes"/>
      <point x="639" y="238"/>
      <point x="560" y="99"/>
      <point x="428" y="62" type="curve"/>
      <point x="428" y="0" type="line"/>
      <point x="717" y="0" type="line"/>
      <point x="717" y="62" type="line"/>
      <point x="527" y="62" type="line"/>
      <point x="640" y="121"/>
      <point x="709" y="235"/>
      <point x="709" y="365" type="curve" smooth="yes"/>
      <point x="709" y="549"/>
      <point x="569" y="715"/>
      <point x="381" y="715" type="curve" smooth="yes"/>
      <point x="194" y="715"/>
      <point x="54" y="549"/>
      <point x="54" y="365" type="curve" smooth="yes"/>
      <point x="54" y="235"/>
      <point x="123" y="121"/>
      <point x="236" y="62" type="curve"/>
      <point x="45" y="62" type="line"/>
    </contour>
  </outline>
</glyph>
<glyph name="integral" format="1">
  <advance width="300"/>
  <unicode hex="222B"/>
  <outline>
    <contour>
      <point x="140" y="-40" type="line" smooth="yes"/>
      <point x="143" y="-86"/>
      <point x="118" y="-112"/>
      <point x="83" y="-112" type="curve" smooth="yes"/>
      <point x="67" y="-112"/>
      <point x="44" y="-106"/>
      <point x="25" y="-98" type="curve"/>
      <point x="9" y="-146" type="line"/>
      <point x="36" y="-158"/>
      <point x="76" y="-167"/>
      <point x="105" y="-167" type="curve" smooth="yes"/>
      <point x="168" y="-167"/>
      <point x="205" y="-126"/>
      <point x="201" y="-57" type="curve" smooth="yes"/>
      <point x="160" y="694" type="line" smooth="yes"/>
      <point x="158" y="739"/>
      <point x="181" y="765"/>
      <point x="216" y="765" type="curve" smooth="yes"/>
      <point x="231" y="765"/>
      <point x="257" y="759"/>
      <point x="275" y="751" type="curve"/>
      <point x="292" y="799" type="line"/>
      <point x="264" y="811"/>
      <point x="223" y="820"/>
      <point x="195" y="820" type="curve" smooth="yes"/>
      <point x="131" y="820"/>
      <point x="95" y="772"/>
      <point x="98" y="710" type="curve" smooth="yes"/>
    </contour>
  </outline>
</glyph>
<glyph name="approxequal" format="1">
  <advance width="432"/>
  <unicode hex="2248"/>
  <outline>
    <contour>
      <point x="337" y="357" type="line"/>
      <point x="326" y="346"/>
      <point x="310" y="338"/>
      <point x="283" y="338" type="curve" smooth="yes"/>
      <point x="231" y="338"/>
      <point x="201" y="380"/>
      <point x="143" y="380" type="curve" smooth="yes"/>
      <point x="104" y="380"/>
      <point x="80" y="363"/>
      <point x="65" y="342" type="curve"/>
      <point x="97" y="306" type="line"/>
      <point x="105" y="318"/>
      <point x="120" y="329"/>
      <point x="144" y="329" type="curve" smooth="yes"/>
      <point x="188" y="329"/>
      <point x="221" y="287"/>
      <point x="285" y="287" type="curve" smooth="yes"/>
      <point x="324" y="287"/>
      <point x="350" y="304"/>
      <point x="367" y="324" type="curve"/>
    </contour>
    <contour>
      <point x="337" y="243" type="line"/>
      <point x="326" y="232"/>
      <point x="310" y="225"/>
      <point x="283" y="225" type="curve" smooth="yes"/>
      <point x="231" y="225"/>
      <point x="201" y="267"/>
      <point x="143" y="267" type="curve" smooth="yes"/>
      <point x="104" y="267"/>
      <point x="80" y="249"/>
      <point x="65" y="228" type="curve"/>
      <point x="97" y="192" type="line"/>
      <point x="105" y="204"/>
      <point x="120" y="215"/>
      <point x="144" y="215" type="curve" smooth="yes"/>
      <point x="188" y="215"/>
      <point x="221" y="173"/>
      <point x="285" y="173" type="curve" smooth="yes"/>
      <point x="324" y="173"/>
      <point x="350" y="189"/>
      <point x="367" y="207" type="curve"/>
    </contour>
  </outline>
</glyph>
<glyph name="notequal" format="1">
  <advance width="467"/>
  <unicode hex="2260"/>
  <outline>
    <contour>
      <point x="83" y="309" type="line"/>
      <point x="230" y="309" type="line"/>
      <point x="192" y="243" type="line"/>
      <point x="83" y="243" type="line"/>
      <point x="83" y="194" type="line"/>
      <point x="165" y="194" type="line"/>
      <point x="108" y="93" type="line"/>
      <point x="142" y="78" type="line"/>
      <point x="207" y="194" type="line"/>
      <point x="384" y="194" type="line"/>
      <point x="384" y="243" type="line"/>
      <point x="235" y="243" type="line"/>
      <point x="273" y="309" type="line"/>
      <point x="384" y="309" type="line"/>
      <point x="384" y="358" type="line"/>
      <point x="300" y="358" type="line"/>
      <point x="357" y="458" type="line"/>
      <point x="323" y="474" type="line"/>
      <point x="257" y="358" type="line"/>
      <point x="83" y="358" type="line"/>
    </contour>
  </outline>
</glyph>
<glyph name="N.sc" format="1">
  <advance width="669"/>
  <outline>
    <contour>
      <point x="395" y="707" type="move" name="top"/>
    </contour>
    <contour>
      <point x="396" y="0" type="move" name="bottom"/>
    </contour>
    <contour>
      <point x="531" y="0" type="line"/>
      <point x="585" y="0" type="line"/>
      <point x="585" y="547" type="line"/>
      <point x="522" y="547" type="line"/>
      <point x="522" y="109" type="line"/>
      <point x="132" y="548" type="line"/>
      <point x="84" y="548" type="line"/>
      <point x="84" y="0" type="line"/>
      <point x="146" y="0" type="line"/>
      <point x="146" y="431" type="line"/>
    </contour>
  </outline>
</glyph>
<glyph name="P.sc" format="1">
  <advance width="543"/>
  <outline>
    <contour>
      <point x="146" y="0" type="line"/>
      <point x="146" y="199" type="line"/>
      <point x="337" y="199" type="line" smooth="yes"/>
      <point x="441" y="199"/>
      <point x="510" y="284"/>
      <point x="510" y="374" type="curve" smooth="yes"/>
      <point x="510" y="459"/>
      <point x="436" y="548"/>
      <point x="331" y="548" type="curve" smooth="yes"/>
      <point x="84" y="548" type="line"/>
      <point x="84" y="0" type="line"/>
    </contour>
    <contour>
      <point x="146" y="492" type="line"/>
      <point x="328" y="492" type="line" smooth="yes"/>
      <point x="393" y="492"/>
      <point x="447" y="439"/>
      <point x="447" y="374" type="curve" smooth="yes"/>
      <point x="447" y="309"/>
      <point x="403" y="255"/>
      <point x="334" y="255" type="curve" smooth="yes"/>
      <point x="146" y="255" type="line"/>
    </contour>
  </outline>
</glyph>
<glyph name="R.sc" format="1">
  <advance width="570"/>
  <outline>
    <contour>
      <point x="318" y="710" type="move" name="top"/>
    </contour>
    <contour>
      <point x="318" y="0" type="move" name="bottom"/>
    </contour>
    <contour>
      <point x="146" y="0" type="line"/>
      <point x="146" y="199" type="line"/>
      <point x="320" y="199" type="line"/>
      <point x="458" y="0" type="line"/>
      <point x="530" y="0" type="line"/>
      <point x="384" y="211" type="line"/>
      <point x="463" y="227"/>
      <point x="516" y="297"/>
      <point x="516" y="374" type="curve" smooth="yes"/>
      <point x="516" y="459"/>
      <point x="441" y="548"/>
      <point x="337" y="548" type="curve" smooth="yes"/>
      <point x="84" y="548" type="line"/>
      <point x="84" y="0" type="line"/>
    </contour>
    <contour>
      <point x="146" y="492" type="line"/>
      <point x="333" y="492" type="line" smooth="yes"/>
      <point x="399" y="492"/>
      <point x="452" y="437"/>
      <point x="452" y="374" type="curve" smooth="yes"/>
      <point x="452" y="311"/>
      <point x="407" y="255"/>
      <point x="339" y="255" type="curve" smooth="yes"/>
      <point x="146" y="255" type="line"/>
    </contour>
  </outline>
</glyph>
<glyph name="T.sc" format="1">
  <advance width="531"/>
  <outline>
    <contour>
      <point x="299" y="707" type="move" name="top"/>
    </contour>
    <contour>
      <point x="299" y="0" type="move" name="bottom"/>
    </contour>
    <contour>
      <point x="508" y="548" type="line"/>
      <point x="22" y="548" type="line"/>
      <point x="22" y="492" type="line"/>
      <point x="235" y="492" type="line"/>
      <point x="235" y="0" type="line"/>
      <point x="297" y="0" type="line"/>
      <point x="297" y="492" type="line"/>
      <point x="508" y="492" type="line"/>
    </contour>
  </outline>
</glyph>
<glyph name="V.sc" format="1">
  <advance width="588"/>
  <outline>
    <contour>
      <point x="18" y="548" type="line"/>
      <point x="267" y="0" type="line"/>
      <point x="321" y="0" type="line"/>
      <point x="570" y="548" type="line"/>
      <point x="504" y="548" type="line"/>
      <point x="295" y="87" type="line"/>
      <point x="84" y="548" type="line"/>
    </contour>
  </outline>
</glyph>
<glyph name="c_t" format="1">
  <advance width="880"/>
  <outline>
    <contour>
      <point x="852" y="80" type="line"/>
      <point x="843" y="76"/>
      <point x="811" y="57"/>
      <point x="773" y="57" type="curve" smooth="yes"/>
      <point x="741" y="57"/>
      <point x="713" y="75"/>
      <point x="710" y="113" type="curve"/>
      <point x="710" y="467" type="line"/>
      <point x="829" y="467" type="line"/>
      <point x="829" y="521" type="line"/>
      <point x="710" y="521" type="line"/>
      <point x="709" y="651"/>
      <point x="711" y="747"/>
      <point x="551" y="747" type="curve" smooth="yes"/>
      <point x="452" y="747"/>
      <point x="399" y="688"/>
      <point x="399" y="607" type="curve" smooth="yes"/>
      <point x="399" y="560"/>
      <point x="423" y="519"/>
      <point x="442" y="486" type="curve"/>
      <point x="405" y="514"/>
      <point x="361" y="530"/>
      <point x="295" y="530" type="curve" smooth="yes"/>
      <point x="138" y="530"/>
      <point x="39" y="400"/>
      <point x="39" y="259" type="curve" smooth="yes"/>
      <point x="39" y="123"/>
      <point x="143" y="-10"/>
      <point x="300" y="-10" type="curve" smooth="yes"/>
      <point x="390" y="-10"/>
      <point x="486" y="37"/>
      <point x="517" y="119" type="curve"/>
      <point x="450" y="139" type="line"/>
      <point x="433" y="84"/>
      <point x="355" y="50"/>
      <point x="300" y="50" type="curve" smooth="yes"/>
      <point x="193" y="50"/>
      <point x="108" y="146"/>
      <point x="108" y="259" type="curve" smooth="yes"/>
      <point x="108" y="364"/>
      <point x="178" y="470"/>
      <point x="293" y="470" type="curve" smooth="yes"/>
      <point x="358" y="470"/>
      <point x="413" y="444"/>
      <point x="446" y="385" type="curve"/>
      <point x="512" y="406" type="line"/>
      <point x="496" y="441"/>
      <point x="435" y="536"/>
      <point x="435" y="604" type="curve" smooth="yes"/>
      <point x="435" y="662"/>
      <point x="466" y="710"/>
      <point x="535" y="710" type="curve" smooth="yes"/>
      <point x="625" y="710"/>
      <point x="642" y="679"/>
      <point x="642" y="521" type="curve"/>
      <point x="570" y="521" type="line"/>
      <point x="570" y="467" type="line"/>
      <point x="642" y="467" type="line"/>
      <point x="642" y="94" type="line" smooth="yes"/>
      <point x="642" y="27"/>
      <point x="693" y="-6"/>
      <point x="752" y="-6" type="curve" smooth="yes"/>
      <point x="808" y="-6"/>
      <point x="854" y="18"/>
      <point x="869" y="25" type="curve"/>
    </contour>
  </outline>
</glyph>
<glyph name="caron.alt" format="1">
  <advance width="222"/>
  <outline>
    <contour>
      <point x="88" y="521" type="move" name="_top"/>
    </contour>
    <contour>
      <point x="180" y="730" type="line"/>
      <point x="108" y="730" type="line"/>
      <point x="49" y="637" type="line"/>
      <point x="94" y="620" type="line"/>
    </contour>
  </outline>
</glyph>
<glyph name="d.alt" format="1">
  <advance width="618"/>
  <outline>
    <contour>
      <point x="543" y="0" type="line"/>
      <point x="543" y="730" type="line"/>
      <point x="475" y="730" type="line"/>
      <point x="475" y="412" type="line"/>
      <point x="432" y="477"/>
      <point x="365" y="530"/>
      <point x="277" y="530" type="curve" smooth="yes"/>
      <point x="140" y="530"/>
      <point x="40" y="406"/>
      <point x="40" y="259" type="curve" smooth="yes"/>
      <point x="40" y="119"/>
      <point x="144" y="-10"/>
      <point x="289" y="-10" type="curve" smooth="yes"/>
      <point x="365" y="-10"/>
      <point x="435" y="33"/>
      <point x="475" y="97" type="curve"/>
      <point x="475" y="0" type="line"/>
    </contour>
    <contour>
      <point x="475" y="179" type="line"/>
      <point x="467" y="108"/>
      <point x="373" y="50"/>
      <point x="304" y="50" type="curve" smooth="yes"/>
      <point x="195" y="50"/>
      <point x="110" y="146"/>
      <point x="110" y="259" type="curve" smooth="yes"/>
      <point x="110" y="365"/>
      <point x="183" y="470"/>
      <point x="295" y="470" type="curve" smooth="yes"/>
      <point x="367" y="470"/>
      <point x="450" y="413"/>
      <point x="475" y="340" type="curve"/>
    </contour>
  </outline>
</glyph>
<glyph name="five.lnum" format="1">
  <advance width="556"/>
  <outline>
    <contour>
      <point x="283" y="451" type="curve" smooth="yes"/>
      <point x="223" y="451"/>
      <point x="171" y="430"/>
      <point x="136" y="392" type="curve"/>
      <point x="186" y="647" type="line"/>
      <point x="478" y="647" type="line"/>
      <point x="478" y="710" type="line"/>
      <point x="135" y="710" type="line"/>
      <point x="135" y="710"/>
      <point x="63" y="345"/>
      <point x="55" y="311" type="curve"/>
      <point x="119" y="311" type="line"/>
      <point x="154" y="362"/>
      <point x="213" y="391"/>
      <point x="275" y="391" type="curve" smooth="yes"/>
      <point x="370" y="391"/>
      <point x="445" y="322"/>
      <point x="445" y="224" type="curve" smooth="yes"/>
      <point x="445" y="122"/>
      <point x="368" y="52"/>
      <point x="269" y="52" type="curve" smooth="yes"/>
      <point x="192" y="52"/>
      <point x="122" y="95"/>
      <point x="86" y="161" type="curve"/>
      <point x="40" y="127" type="line"/>
      <point x="81" y="44"/>
      <point x="167" y="-10"/>
      <point x="268" y="-10" type="curve" smooth="yes"/>
      <point x="404" y="-10"/>
      <point x="514" y="85"/>
      <point x="514" y="225" type="curve" smooth="yes"/>
      <point x="514" y="358"/>
      <point x="412" y="451"/>
    </contour>
  </outline>
</glyph>
<glyph name="one.lnum" format="1">
  <advance width="416"/>
  <outline>
    <contour>
      <point x="269" y="62" type="line"/>
      <point x="269" y="719" type="line"/>
      <point x="200" y="719" type="line"/>
      <point x="198" y="715"/>
      <point x="112" y="621"/>
      <point x="42" y="621" type="curve"/>
      <point x="42" y="557" type="line"/>
      <point x="96" y="557"/>
      <point x="178" y="612"/>
      <point x="200" y="643" type="curve"/>
      <point x="200" y="62" type="line"/>
      <point x="65" y="62" type="line"/>
      <point x="65" y="0" type="line"/>
      <point x="396" y="0" type="line"/>
      <point x="396" y="62" type="line"/>
    </contour>
  </outline>
</glyph>
<glyph name="t.alt" format="1">
  <advance width="316"/>
  <outline>
    <contour>
      <point x="173" y="0" type="line"/>
      <point x="173" y="459" type="line"/>
      <point x="297" y="459" type="line"/>
      <point x="297" y="521" type="line"/>
      <point x="173" y="521" type="line"/>
      <point x="173" y="697" type="line"/>
      <point x="104" y="697" type="line"/>
      <point x="104" y="521" type="line"/>
      <point x="27" y="521" type="line"/>
      <point x="27" y="459" type="line"/>
      <point x="104" y="459" type="line"/>
      <point x="104" y="0" type="line"/>
    </contour>
  </outline>
</glyph>
<glyph name="zero.numerator" format="1">
  <advance width="458"/>
  <outline>
    <contour>
      <point x="230" y="326" type="curve" smooth="yes"/>
      <point x="348" y="326"/>
      <point x="420" y="430"/>
      <point x="420" y="528" type="curve" smooth="yes"/>
      <point x="420" y="615"/>
      <point x="355" y="730"/>
      <point x="230" y="730" type="curve" smooth="yes"/>
      <point x="111" y="730"/>
      <point x="38" y="624"/>
      <point x="38" y="528" type="curve" smooth="yes"/>
      <point x="38" y="438"/>
      <point x="103" y="326"/>
    </contour>
    <contour>
      <point x="84" y="528" type="curve" smooth="yes"/>
      <point x="84" y="594"/>
      <point x="131" y="686"/>
      <point x="230" y="686" type="curve" smooth="yes"/>
      <point x="322" y="686"/>
      <point x="375" y="602"/>
      <point x="375" y="528" type="curve" smooth="yes"/>
      <point x="375" y="461"/>
      <point x="328" y="370"/>
      <point x="230" y="370" type="curve" smooth="yes"/>
      <point x="135" y="370"/>
      <point x="84" y="454"/>
    </contour>
  </outline>
</glyph>
